<?xml version="1.0" standalone="no"?>
<!DOCTYPE svg PUBLIC "-//W3C//DTD SVG 20010904//EN"
 "http://www.w3.org/TR/2001/REC-SVG-20010904/DTD/svg10.dtd">
<svg version="1.0" xmlns="http://www.w3.org/2000/svg"
 width="512.000000pt" height="512.000000pt" viewBox="0 0 512.000000 512.000000"
 preserveAspectRatio="xMidYMid meet">
<metadata>
Created by potrace 1.14, written by Peter Selinger 2001-2017
</metadata>
<g transform="translate(0.000000,512.000000) scale(0.100000,-0.100000)"
fill="#000000" stroke="none">
<path d="M0 2560 l0 -2560 2560 0 2560 0 0 2560 0 2560 -2560 0 -2560 0 0
-2560z m2687 2048 c37 -22 76 -95 71 -135 -3 -25 -9 -29 -63 -43 -176 -46
-296 -182 -312 -354 -16 -170 100 -353 256 -406 26 -9 46 -20 44 -26 -2 -6 22
-23 54 -39 65 -32 181 -45 245 -27 35 10 37 9 49 -21 32 -77 133 -147 213
-147 26 0 47 -8 68 -25 29 -24 46 -29 98 -26 23 2 27 -5 48 -77 19 -63 30 -82
52 -95 35 -21 92 -22 131 -1 24 12 34 13 45 3 48 -40 -21 -110 -117 -117 -49
-4 -59 -7 -55 -21 2 -9 8 -35 11 -58 6 -38 10 -43 33 -43 15 0 47 12 71 25 41
24 45 24 62 9 10 -9 30 -39 44 -67 69 -140 -6 -326 -151 -368 -38 -12 -44 -17
-44 -41 0 -15 -3 -28 -6 -28 -4 0 -25 16 -47 36 -62 56 -118 77 -222 82 -107
5 -176 -16 -244 -74 l-42 -36 -22 20 c-20 18 -79 52 -91 52 -3 0 -6 -37 -8
-82 l-3 -83 -38 -3 c-22 -2 -41 -10 -44 -18 -8 -21 -448 -21 -460 0 -4 8 -24
16 -43 18 l-35 3 -5 60 -5 60 -58 29 c-49 24 -70 29 -130 28 -43 0 -91 -8
-117 -18 -25 -9 -63 -16 -85 -15 -73 3 -171 -19 -218 -49 l-45 -28 -6 39 c-6
35 -11 41 -56 60 -60 26 -122 91 -138 147 -21 68 -15 152 13 209 14 28 34 58
44 67 17 16 21 15 66 -9 48 -25 80 -32 88 -17 3 4 8 30 12 58 l6 51 -41 6
c-48 6 -101 40 -124 79 -14 23 -15 31 -4 48 16 25 33 25 65 0 29 -23 114 -28
130 -7 5 6 20 45 33 85 17 56 29 76 49 87 56 29 76 62 77 127 l1 60 51 17 c55
19 81 37 123 85 l26 30 74 -37 c124 -60 247 -71 379 -31 l55 16 -65 24 c-35
13 -89 40 -120 62 -70 49 -153 159 -181 237 -26 76 -35 202 -20 278 41 196
210 356 414 392 82 14 118 11 164 -17z m-117 -2477 c0 -4 18 -29 41 -55 l41
-46 -122 0 -122 0 41 46 c23 26 41 51 41 55 0 5 18 9 40 9 22 0 40 -4 40 -9z
m275 -191 c20 0 19 -13 -4 -58 -26 -50 -101 -119 -159 -144 -51 -23 -169 -35
-191 -20 -11 8 -8 21 14 71 33 74 114 152 177 173 39 13 48 13 95 -4 29 -10
59 -18 68 -18z m-780 -1045 c59 -13 100 -16 168 -11 85 6 90 5 119 -20 122
-101 312 -106 426 -9 30 25 40 28 101 26 93 -3 202 22 286 64 39 19 73 35 78
35 4 0 7 -56 7 -125 l0 -125 95 0 95 0 0 -240 0 -240 -890 0 -890 0 0 240 0
240 80 0 80 0 0 134 0 134 83 -43 c47 -24 118 -51 162 -60z"/>
<path d="M2100 3284 c-91 -7 -180 -13 -197 -13 l-33 -1 0 -69 c0 -39 3 -72 8
-74 12 -7 442 27 442 36 0 4 0 36 0 72 0 65 0 65 -27 64 -16 -1 -102 -7 -193
-15z"/>
<path d="M2797 3184 c-3 -38 -4 -70 -2 -72 7 -7 423 -25 439 -19 12 5 16 20
16 70 l0 64 -77 7 c-43 3 -144 9 -224 12 l-146 7 -6 -69z"/>
<path d="M2080 3040 c23 -43 -18 -82 -69 -65 -47 15 -12 -84 39 -110 49 -25
107 -15 95 17 -7 17 16 40 36 36 19 -4 24 59 8 90 -16 28 -58 52 -94 52 -23 0
-24 -2 -15 -20z"/>
<path d="M3008 3030 c2 -17 -1 -37 -8 -45 -15 -18 -51 -20 -68 -3 -9 9 -12 4
-12 -26 0 -69 79 -125 143 -100 9 3 12 14 9 30 -4 23 -1 25 31 28 18 1 27 17
27 50 0 39 -58 96 -97 96 -27 0 -29 -2 -25 -30z"/>
</g>
</svg>
