<?xml version="1.0" encoding="UTF-8"?><svg id="Layer_1" xmlns="http://www.w3.org/2000/svg" xmlns:xlink="http://www.w3.org/1999/xlink" viewBox="0 0 1080 1080"><defs><style>.cls-1{fill:none;}.cls-2{fill:#252b39;}.cls-3{fill:#a6622c;}.cls-4{fill:#ecf4de;}.cls-5{fill:#eb9634;}.cls-6{fill:#da1c4b;}.cls-7{fill:#6c401a;}.cls-8{clip-path:url(#clippath-1);}.cls-9{fill:#0d2436;}.cls-10{fill:#97153c;}.cls-11{fill:#e9927c;}.cls-12{fill:#bd7035;}.cls-13{fill:#fff;}.cls-14{fill:#343f4f;}.cls-15{fill:#5a6470;}.cls-16{fill:#cb802b;}.cls-17{fill:#623914;}.cls-18{fill:#fac69f;}.cls-19{clip-path:url(#clippath);}</style><clipPath id="clippath"><path id="SVGID" class="cls-1" d="M414.62,554.27c-104.33,8.91-196.13-68.45-205.03-172.78l-6.66-77.97c-11.45-251.41,346.51-281.93,377.81-32.25,0,0,6.66,77.97,6.66,77.97,8.91,104.33-68.45,196.13-172.78,205.03Z"/></clipPath><clipPath id="clippath-1"><path id="SVGID-2" class="cls-1" d="M632.69,610.94c.88-1.91,1.77-3.82,2.65-5.72,1.63-3.52,3.26-7.04,4.89-10.57.34-.73.68-1.47,1.02-2.2.41-.88.81-1.76,1.22-2.64.47-1.03.95-2.05,1.43-3.08.41-.88.81-1.76,1.22-2.64.27-.59.54-1.17.82-1.76.47-1.03.95-2.05,1.43-3.08.34-.73.68-1.47,1.02-2.2.13-.29.27-.59.41-.88.27-.59.54-1.17.82-1.76.2-.44.41-.88.61-1.32.27-.59.54-1.17.82-1.76.13-.29.27-.59.41-.88.2-.44.41-.88.61-1.32.41-.88.81-1.76,1.22-2.64.41-.88.82-1.76,1.22-2.64.34-.73.68-1.47,1.02-2.2.13-.29.27-.59.41-.88.06-.15.14-.29.2-.44.2-.44.41-.88.61-1.32.27-.59.54-1.18.82-1.76.41-.88.81-1.76,1.22-2.64.06-.15.14-.29.2-.44.2-.44.41-.88.61-1.32.06-.15.14-.29.2-.44.2-.44.41-.88.61-1.32.06-.15.14-.29.2-.44.2-.44.41-.88.61-1.32.27-.59.54-1.17.82-1.76.06-.15.14-.29.2-.44.06-.15.14-.29.2-.44.06-.15.14-.29.2-.44.27-.59.54-1.17.82-1.76.06-.15.14-.29.2-.44.13-.3.27-.59.41-.88.06-.15.14-.29.2-.44.07-.15.14-.29.2-.44.13-.29.27-.59.41-.88.06-.15.14-.29.2-.44.06-.15.14-.29.2-.44.06-.15.14-.29.2-.44.34-.73.68-1.47,1.02-2.2.06-.15.14-.29.2-.44.06-.15.14-.29.2-.44.13-.29.27-.59.41-.88.06-.15.14-.29.2-.44.13-.29.27-.59.41-.88.06-.15.14-.29.2-.44.06-.15.14-.29.2-.44.06-.15.14-.29.2-.44.2-.44.41-.88.61-1.32.13-.29.27-.59.41-.88.06-.15.14-.29.2-.44.06-.15.14-.29.2-.44.06-.15.14-.29.2-.44.13-.29.27-.59.41-.88.06-.15.14-.29.2-.44.06-.15.14-.29.2-.44.06-.15.14-.29.2-.44.06-.15.14-.29.2-.44.06-.15.14-.29.2-.44.06-.15.14-.29.2-.44.27-.59.54-1.18.82-1.76.06-.15.14-.29.2-.44.06-.15.14-.29.2-.44.06-.15.14-.29.2-.44.12-.27.25-.54.37-.81.29-.85.62-1.67.99-2.49.29-.85.62-1.67.99-2.49.29-.84.62-1.67.99-2.49.29-.84.62-1.67.99-2.49.29-.85.62-1.67.99-2.49.29-.84.62-1.67.99-2.49.29-.84.62-1.67.99-2.49.29-.84.62-1.67.99-2.49.29-.84.62-1.67.99-2.49.29-.84.62-1.67.99-2.49.29-.84.62-1.67.99-2.49.29-.84.62-1.67.99-2.49.29-.84.62-1.67.99-2.49.29-.84.62-1.67.99-2.49.29-.84.62-1.67.99-2.49.29-.84.62-1.67.99-2.49.29-.84.62-1.67.99-2.49.29-.84.62-1.67.99-2.49.29-.84.62-1.67.99-2.49.29-.84.62-1.67.99-2.49.29-.84.62-1.67.99-2.49.29-.84.62-1.67.99-2.49.29-.84.62-1.67.99-2.49.29-.84.62-1.67.99-2.49.29-.84.62-1.67.99-2.49.29-.84.62-1.67.99-2.49.29-.84.62-1.67.99-2.49.29-.84.62-1.67.99-2.49.29-.84.62-1.67.99-2.49.29-.84.62-1.67.99-2.49.29-.84.62-1.67.99-2.49.29-.84.62-1.67.99-2.49.29-.84.62-1.67.99-2.49.29-.84.62-1.67.99-2.49.29-.84.62-1.67.99-2.49.29-.84.62-1.67.99-2.49.29-.84.62-1.67.99-2.49.29-.84.62-1.67.99-2.49.29-.84.62-1.67.99-2.49.29-.84.62-1.67.99-2.49.29-.84.62-1.67.99-2.49.29-.84.62-1.67.99-2.49.29-.84.62-1.67.99-2.49.29-.84.62-1.67.99-2.49.29-.84.62-1.67.99-2.49.29-.84.62-1.67.99-2.49.29-.84.62-1.67.99-2.49.29-.84.62-1.67.99-2.49.29-.84.62-1.67.99-2.49.29-.84.62-1.67.99-2.49.29-.84.62-1.67.99-2.49.29-.84.62-1.67.99-2.49.29-.84.62-1.67.99-2.49.29-.84.62-1.67.99-2.49.29-.84.62-1.67.99-2.49.29-.84.62-1.67.99-2.49.29-.84.62-1.67.99-2.49.29-.84.62-1.67.99-2.49.29-.84.62-1.67.99-2.49.3-.84.62-1.67.99-2.49.3-.84.62-1.67.99-2.49.29-.84.62-1.67.99-2.49.3-.84.62-1.67.99-2.49.3-.84.62-1.67.99-2.49.3-.84.62-1.67.99-2.49.3-.84.62-1.67.99-2.49.3-.84.62-1.67.99-2.49.3-.84.62-1.67.99-2.49.3-.84.62-1.67.99-2.49.3-.84.62-1.67.99-2.49.3-.84.62-1.67.99-2.49.3-.84.62-1.67.99-2.49.3-.84.62-1.67.99-2.49.3-.84.62-1.67.99-2.49.3-.84.62-1.67.99-2.49.3-.84.62-1.67.99-2.49.3-.84.62-1.67.99-2.49.3-.84.62-1.67.99-2.49.3-.84.62-1.67.99-2.49.3-.84.62-1.67.99-2.49.3-.84.62-1.67.99-2.49.3-.84.62-1.67.99-2.49.3-.84.62-1.67.99-2.49.3-.84.62-1.67.99-2.49.3-.84.62-1.67.99-2.49.3-.84.62-1.67.99-2.49.3-.84.62-1.67.99-2.49.3-.84.62-1.67.99-2.49.3-.84.62-1.67.99-2.49.3-.84.62-1.67.99-2.49.3-.84.62-1.67.99-2.49.3-.84.62-1.67.99-2.49.3-.84.62-1.67.99-2.49.3-.84.62-1.67.99-2.49.3-.84.62-1.67.99-2.49.3-.84.62-1.67.99-2.49.3-.84.62-1.67.99-2.49.3-.84.62-1.67.99-2.49.3-.84.62-1.67.99-2.49.3-.84.62-1.67.99-2.49.3-.84.62-1.67.99-2.49.3-.84.62-1.67.99-2.49.3-.84.62-1.67.99-2.49.3-.84.62-1.67.99-2.49.3-.84.62-1.67.99-2.49.3-.84.62-1.67.99-2.49.3-.84.62-1.67.99-2.49.3-.84.62-1.67.99-2.49.3-.84.62-1.67.99-2.49.3-.84.62-1.67.99-2.49.3-.84.62-1.67.99-2.49.3-.84.62-1.67.99-2.49.3-.84.62-1.67.99-2.49.3-.84.62-1.67.99-2.49.3-.84.62-1.67.99-2.49.3-.84.62-1.67.99-2.49.3-.84.62-1.67.99-2.49.3-.84.62-1.67.99-2.49.3-.84.62-1.67.99-2.49.3-.84.62-1.67.99-2.49.3-.84.62-1.67.99-2.49.3-.84.62-1.67.99-2.49.3-.84.62-1.67.99-2.49.3-.84.62-1.67.99-2.49.3-.84.62-1.67.99-2.49.3-.84.62-1.67.99-2.49.3-.84.62-1.67.99-2.49.3-.84.62-1.67.99-2.49.3-.84.62-1.67.99-2.49.3-.84.62-1.67.99-2.49.3-.84.62-1.67.99-2.49.3-.84.62-1.67.99-2.49.3-.84.62-1.67.99-2.49.3-.84.62-1.67.99-2.49.3-.84.62-1.67.99-2.49.3-.84.62-1.67.99-2.49.3-.84.62-1.67.99-2.49.3-.84.62-1.67.99-2.49.3-.84.62-1.67.99-2.49.3-.84.62-1.67.99-2.49.3-.84.62-1.67.99-2.49.31-.84.62-1.67.99-2.49.3-.84.62-1.67.99-2.49.31-.84.62-1.67.99-2.49.31-.84.62-1.67.99-2.49.3-.84.62-1.67.99-2.48.31-.84.62-1.67.99-2.49.31-.84.62-1.67.99-2.49.31-.84.62-1.67.99-2.49.31-.84.62-1.67.99-2.49.31-.84.62-1.67.99-2.49.31-.84.62-1.67.99-2.49.31-.84.62-1.67.99-2.49.31-.84.62-1.67.99-2.49.31-.84.62-1.67.99-2.49.31-.84.62-1.67.99-2.49.31-.84.62-1.67.99-2.49.31-.84.62-1.67.99-2.49.31-.84.62-1.67.99-2.49.31-.84.62-1.67.99-2.49.31-.84.62-1.67.99-2.49.31-.84.62-1.67.99-2.49.31-.84.62-1.67.99-2.49.31-.84.62-1.67.99-2.49.31-.84.62-1.67.99-2.49.31-.84.62-1.67.99-2.49.31-.84.62-1.67.99-2.49.31-.84.62-1.67.99-2.49.31-.84.62-1.67.99-2.49.31-.84.62-1.67.99-2.49.31-.84.62-1.67.99-2.49.31-.84.62-1.67.99-2.49.31-.84.62-1.67.99-2.49.31-.84.62-1.67.99-2.49.31-.84.62-1.67.99-2.49.31-.84.62-1.67.99-2.49.31-.84.62-1.67.99-2.49.31-.84.62-1.67.99-2.49.31-.84.62-1.67.99-2.49.31-.84.62-1.67.99-2.49.31-.84.62-1.67.99-2.49.31-.84.62-1.67.99-2.49.31-.84.62-1.67.99-2.49.31-.84.62-1.67.99-2.49.31-.84.62-1.67.99-2.49.31-.84.62-1.67.99-2.49.31-.84.62-1.67.99-2.49.31-.84.62-1.67.99-2.49.31-.84.62-1.67.99-2.49.31-.84.62-1.67.99-2.49.31-.84.62-1.67.99-2.49.31-.84.62-1.67.99-2.49.31-.84.62-1.67.99-2.49.31-.84.62-1.67.99-2.49.31-.84.62-1.67.99-2.49.31-.84.62-1.67.99-2.49.31-.84.62-1.67.99-2.49.31-.84.62-1.67.99-2.49.31-.84.62-1.67.99-2.49.31-.84.62-1.67.99-2.49,10.62-29.76,52.47-34.23,69.11-7.03,7.38,11.8,7.57,26.03,1.84,37.66-.34.82-.71,1.63-1.1,2.44-.34.83-.71,1.64-1.11,2.44-.34.82-.71,1.63-1.1,2.44-.34.83-.71,1.63-1.1,2.44-.34.82-.71,1.63-1.1,2.43-.34.83-.71,1.64-1.11,2.44-.34.82-.71,1.63-1.1,2.44-.34.83-.71,1.63-1.1,2.44-.34.82-.71,1.63-1.1,2.44-.34.83-.71,1.64-1.1,2.44-.34.82-.71,1.63-1.1,2.44-.34.83-.71,1.63-1.1,2.44-.34.83-.71,1.64-1.11,2.44-.34.83-.71,1.63-1.1,2.44-.34.83-.71,1.63-1.1,2.44-.34.83-.71,1.63-1.1,2.44-.34.83-.71,1.64-1.1,2.44-.34.83-.71,1.63-1.1,2.44-.34.83-.71,1.64-1.1,2.44-.34.83-.71,1.63-1.1,2.44-.34.82-.71,1.63-1.1,2.44-.34.83-.71,1.64-1.1,2.44-.34.83-.71,1.63-1.1,2.44-.34.83-.71,1.64-1.1,2.44-.34.83-.71,1.64-1.1,2.44-.34.83-.71,1.63-1.1,2.44-.34.83-.71,1.64-1.1,2.44-.34.83-.71,1.63-1.1,2.44-.34.83-.71,1.64-1.1,2.44-.34.83-.71,1.64-1.11,2.44-.34.83-.71,1.63-1.1,2.44-.34.83-.71,1.64-1.1,2.44-.34.83-.71,1.64-1.1,2.44-.34.83-.71,1.64-1.1,2.44-.34.83-.71,1.64-1.1,2.44-.34.83-.71,1.64-1.1,2.44-.34.83-.71,1.64-1.1,2.44-.34.83-.71,1.64-1.1,2.44-.34.83-.71,1.64-1.1,2.44-.34.83-.71,1.63-1.1,2.44-.34.83-.71,1.64-1.11,2.44-.34.83-.71,1.63-1.1,2.44-.34.83-.71,1.63-1.1,2.44-.34.83-.71,1.64-1.1,2.44-.34.83-.71,1.64-1.1,2.44-.34.83-.71,1.64-1.1,2.44-.34.83-.71,1.64-1.1,2.44-.34.83-.71,1.63-1.1,2.43-.34.83-.71,1.64-1.11,2.44-.34.83-.71,1.63-1.1,2.43-.34.83-.71,1.64-1.1,2.44-.34.83-.71,1.64-1.1,2.44-.34.83-.71,1.64-1.1,2.44-.34.83-.71,1.64-1.1,2.44-.34.83-.71,1.64-1.1,2.44-.34.83-.71,1.64-1.1,2.44-.34.83-.71,1.64-1.1,2.44-.34.83-.71,1.64-1.1,2.44-.34.83-.71,1.64-1.1,2.44-.34.83-.71,1.64-1.11,2.44-.34.83-.71,1.64-1.1,2.44-.34.83-.71,1.64-1.11,2.44-.34.83-.71,1.64-1.1,2.44-.34.83-.71,1.64-1.11,2.44-.34.83-.71,1.64-1.1,2.43-.34.83-.71,1.64-1.1,2.44-.34.83-.71,1.64-1.1,2.44-.34.83-.71,1.64-1.1,2.44-.34.83-.71,1.64-1.1,2.44-.34.83-.71,1.64-1.1,2.44-.33.83-.71,1.64-1.1,2.44-.33.83-.71,1.64-1.1,2.44-.33.83-.71,1.64-1.1,2.44-.34.83-.71,1.64-1.1,2.44-.33.83-.7,1.64-1.1,2.44-.33.83-.71,1.64-1.11,2.44-.33.83-.7,1.64-1.1,2.44-.33.83-.7,1.64-1.1,2.44-.33.83-.7,1.64-1.1,2.44-.33.83-.71,1.64-1.11,2.44-.33.83-.7,1.64-1.1,2.44-.33.83-.7,1.64-1.1,2.44-.33.83-.7,1.64-1.1,2.44-.33.83-.7,1.64-1.1,2.44-.33.83-.7,1.64-1.1,2.44-.33.83-.7,1.64-1.1,2.44-.33.83-.7,1.64-1.11,2.44-.33.83-.7,1.64-1.1,2.44-.33.83-.7,1.64-1.1,2.44-.33.83-.7,1.64-1.1,2.44-.33.83-.7,1.64-1.1,2.44-.33.83-.7,1.64-1.1,2.44-.33.83-.7,1.64-1.1,2.44-.33.83-.7,1.64-1.1,2.44-.33.83-.7,1.64-1.1,2.44-.33.83-.7,1.64-1.1,2.44-.33.83-.7,1.64-1.1,2.44-.33.83-.7,1.64-1.1,2.44-.33.83-.7,1.64-1.1,2.44-.33.83-.7,1.64-1.1,2.44-.33.83-.7,1.64-1.11,2.44-.33.83-.7,1.64-1.1,2.44-.33.83-.7,1.64-1.1,2.44-.33.83-.7,1.64-1.1,2.44-.33.83-.7,1.64-1.11,2.44-.33.83-.7,1.64-1.1,2.44-.33.83-.7,1.64-1.1,2.44-.33.83-.7,1.64-1.1,2.44-.33.83-.7,1.64-1.1,2.44-.33.83-.7,1.64-1.1,2.44-.33.83-.7,1.64-1.1,2.44-.33.83-.7,1.64-1.1,2.44-.33.83-.7,1.64-1.1,2.44-.33.83-.7,1.64-1.1,2.44-.33.83-.7,1.64-1.1,2.44-.33.83-.7,1.64-1.1,2.44-.33.83-.7,1.64-1.1,2.44-.33.83-.7,1.64-1.1,2.44-.33.83-.7,1.64-1.1,2.44-.33.83-.7,1.64-1.1,2.44-.33.83-.7,1.64-1.1,2.44-.33.83-.7,1.64-1.1,2.44-.33.83-.7,1.64-1.1,2.44-.33.83-.7,1.64-1.1,2.44-.33.83-.7,1.64-1.11,2.44-.33.83-.7,1.64-1.1,2.44-.33.83-.7,1.64-1.1,2.44-.33.83-.7,1.64-1.1,2.44-.33.83-.7,1.64-1.1,2.44-.33.83-.7,1.64-1.1,2.44-.33.83-.7,1.64-1.1,2.44-.33.83-.7,1.64-1.1,2.44-.33.83-.7,1.64-1.1,2.44-.33.83-.7,1.64-1.11,2.44-.33.83-.7,1.64-1.1,2.43-.33.83-.7,1.64-1.11,2.44-.33.83-.7,1.64-1.1,2.44-.33.83-.7,1.64-1.1,2.44-.33.83-.7,1.64-1.1,2.44-.33.83-.7,1.64-1.1,2.44-.33.83-.7,1.64-1.11,2.44-.33.83-.7,1.64-1.1,2.44-.33.83-.7,1.64-1.1,2.44-.33.83-.7,1.64-1.1,2.44-.33.83-.7,1.64-1.1,2.44-.33.83-.7,1.64-1.1,2.44-.33.83-.7,1.64-1.1,2.44-.33.83-.7,1.64-1.1,2.44-.33.83-.7,1.64-1.1,2.44-.33.83-.7,1.64-1.1,2.44-.33.83-.7,1.64-1.1,2.44-.33.83-.7,1.64-1.1,2.44-.33.83-.7,1.64-1.1,2.44-.33.83-.7,1.64-1.1,2.44-.33.83-.7,1.64-1.1,2.44-.33.83-.7,1.64-1.1,2.44-.33.83-.7,1.64-1.1,2.44-.33.83-.7,1.64-1.11,2.44-.33.83-.7,1.64-1.1,2.44-.33.83-.7,1.64-1.1,2.44-.33.83-.7,1.64-1.1,2.44-.33.83-.7,1.64-1.1,2.44-.33.83-.7,1.64-1.1,2.44-.33.83-.7,1.64-1.1,2.44-.33.83-.7,1.64-1.1,2.44-.33.83-.7,1.64-1.1,2.44-.33.83-.7,1.64-1.1,2.44-.33.83-.7,1.64-1.1,2.44-.33.83-.7,1.64-1.1,2.44-.33.83-.7,1.64-1.1,2.44-.33.83-.7,1.64-1.1,2.44-.33.83-.7,1.64-1.1,2.44-.33.83-.7,1.64-1.11,2.44-.33.83-.7,1.64-1.1,2.44-.33.83-.7,1.64-1.1,2.44-.33.83-.7,1.64-1.1,2.44-.33.83-.7,1.64-1.1,2.44-.33.83-.7,1.64-1.1,2.44-.33.83-.7,1.64-1.1,2.44-.33.83-.7,1.64-1.1,2.44-.33.83-.7,1.64-1.11,2.44-.33.83-.7,1.64-1.1,2.44-.33.83-.7,1.64-1.1,2.44-.33.83-.7,1.64-1.1,2.44-.33.83-.7,1.64-1.1,2.44-.33.83-.7,1.64-1.1,2.44-.33.83-.69,1.64-1.1,2.44-.33.83-.7,1.64-1.1,2.44-.33.83-.7,1.64-1.11,2.44-.33.83-.69,1.64-1.1,2.44-.33.83-.7,1.64-1.1,2.44-.33.83-.69,1.64-1.1,2.44-.33.83-.69,1.64-1.1,2.44-.33.83-.69,1.64-1.1,2.44-.33.83-.69,1.64-1.1,2.44-.33.83-.69,1.64-1.11,2.44-.33.83-.69,1.64-1.1,2.44-.33.83-.69,1.64-1.1,2.44-.33.83-.69,1.64-1.1,2.44-.26.67-.56,1.33-.88,1.98-.03.09-.06.17-.09.26-.05.15-.1.31-.15.46-.05.15-.1.31-.15.46-.05.15-.1.31-.15.46-.05.15-.1.31-.15.46-.05.15-.1.31-.15.46-.05.15-.1.31-.15.46-.05.15-.1.31-.15.46-.05.15-.1.31-.15.46-.15.46-.29.92-.44,1.38-.05.15-.1.31-.15.46-.05.15-.1.31-.15.46-.05.15-.1.31-.15.46-.05.15-.1.31-.15.46-.05.15-.1.31-.15.46-.05.15-.1.31-.15.46-.1.31-.2.62-.3.92-.05.15-.1.31-.15.46-.05.15-.1.31-.15.46-.15.46-.29.92-.45,1.39-.05.15-.1.31-.15.46-.05.15-.1.31-.15.46-.1.31-.2.62-.3.92-.05.15-.1.31-.15.46-.05.15-.1.31-.15.46-.1.31-.2.62-.3.92-.05.15-.1.31-.15.46-.05.15-.1.31-.15.46-.05.15-.1.31-.15.46-.15.46-.29.92-.44,1.38-.15.46-.29.92-.45,1.39-.1.31-.2.62-.3.92-.05.15-.1.31-.15.46-.05.15-.1.31-.15.46-.05.15-.1.31-.15.46-.25.77-.49,1.54-.74,2.31-.1.31-.2.62-.3.92-.25.77-.49,1.54-.74,2.31-.05.15-.1.31-.15.46-.05.15-.1.31-.15.46-.1.31-.2.62-.3.92-.3.92-.59,1.85-.89,2.77-.39,1.23-.79,2.46-1.19,3.7-.1.31-.2.62-.3.92-.05.15-.1.31-.15.46-.1.31-.2.62-.3.93-.15.46-.29.92-.44,1.38-.1.31-.2.62-.3.92-.05.15-.1.31-.15.46-.3.92-.59,1.85-.89,2.77-.25.77-.49,1.54-.74,2.31-.1.31-.2.62-.3.92-.44,1.39-.89,2.77-1.33,4.16-.05.15-.1.31-.15.46-.35,1.08-.69,2.16-1.04,3.23-.05.15-.1.31-.15.46-.15.46-.29.92-.45,1.39-.2.62-.39,1.23-.59,1.85-.15.46-.29.92-.45,1.39-.59,1.85-1.18,3.69-1.78,5.54-.05.15-.1.31-.15.46-.2.62-.39,1.23-.59,1.85-.1.31-.2.62-.3.92-1.33,4.16-2.67,8.31-4,12.47-.94,2.93-1.88,5.85-2.82,8.78-6.78,27.3-43.48,33.6-58.58,9.43-5.94-9.51-6.29-20.92-1.96-30.41Z"/></clipPath></defs><path class="cls-7" d="M458.25,719.99c-35.26,3.01-56.34-3.57-60.85-5.18l22.23-62.35s-.24-.1-.71-.24c.69.21,70.74,20.12,190.51-67.63l39.12,53.4c-81.93,60.03-146.87,78.3-190.3,82Z"/><path class="cls-2" d="M359.33,1068.93c-18.21,1.55-34.24-11.95-35.79-30.16l-19.72-231.02c-1.55-18.21,11.95-34.24,30.16-35.79,18.21-1.55,34.24,11.95,35.79,30.16l19.72,231.02c1.55,18.21-11.95,34.24-30.16,35.79Z"/><path class="cls-2" d="M460.48,1060.3c-18.21,1.55-34.24-11.95-35.79-30.16l-19.72-231.02c-1.55-18.21,11.95-34.24,30.16-35.79,18.21-1.55,34.24,11.95,35.79,30.16l19.72,231.02c1.55,18.21-11.95,34.24-30.16,35.79Z"/><rect class="cls-16" x="226.83" y="619.83" width="311.68" height="311.68" rx="91.53" ry="91.53" transform="translate(-64.59 35.36) rotate(-4.88)"/><rect class="cls-5" x="277.7" y="638.57" width="259.38" height="238.47" rx="70.83" ry="70.83" transform="translate(-62.98 37.4) rotate(-4.88)"/><rect class="cls-16" x="106.61" y="59.72" width="480.52" height="593.25" rx="220.95" ry="220.95" transform="translate(-29.05 30.8) rotate(-4.88)"/><rect class="cls-7" x="226.83" y="748.97" width="311.68" height="53.41" transform="translate(-64.59 35.36) rotate(-4.88)"/><rect class="cls-13" x="388.48" y="731.09" width="89.35" height="80.54" rx="23.43" ry="23.43" transform="translate(-64.04 39.64) rotate(-4.88)"/><rect class="cls-7" x="403.32" y="744.66" width="59.66" height="53.41" rx="15.05" ry="15.05" transform="translate(-64.04 39.64) rotate(-4.88)"/><rect class="cls-5" x="158.26" y="71.08" width="426.59" height="514.63" rx="189.59" ry="189.59" transform="translate(-26.59 32.79) rotate(-4.88)"/><path class="cls-18" d="M414.62,554.27c-104.33,8.91-196.13-68.45-205.03-172.78l-6.66-77.97c-11.45-251.41,346.51-281.93,377.81-32.25,0,0,6.66,77.97,6.66,77.97,8.91,104.33-68.45,196.13-172.78,205.03Z"/><g class="cls-19"><path class="cls-9" d="M307,147.07c-1.57,16.84-16.51,29.21-33.36,27.64-40.31-5.4-34.89-63.16,5.7-60.99,16.85,1.57,29.23,16.5,27.66,33.35Z"/><path class="cls-9" d="M261.01,165.58c-1.57,16.84-16.51,29.21-33.36,27.64-40.31-5.4-34.89-63.16,5.7-60.99,16.85,1.57,29.23,16.5,27.66,33.35Z"/><path class="cls-9" d="M546.18,131.32c-1.57,16.84-16.51,29.21-33.36,27.64-40.31-5.4-34.89-63.16,5.7-60.99,16.85,1.57,29.23,16.5,27.66,33.35Z"/></g><path class="cls-2" d="M628.77,644.91l-37.89-44.98c-7.47-8.86-5.49-22.26,4.22-28.58l34.59-22.53c8.16-5.32,19-3.71,25.28,3.73l31.38,37.25c6.27,7.45,6.01,18.41-.61,25.54l-28.08,30.26c-7.88,8.49-21.42,8.17-28.89-.69Z"/><path class="cls-9" d="M740.81,568.68c-2.9,33.84-32.68,58.93-66.52,56.04-81.01-10.18-71.05-126.3,10.49-122.56,33.84,2.9,58.93,32.68,56.04,66.52Z"/><path class="cls-7" d="M388.01,757.67c6.55,76.75-50.35,144.28-127.1,150.83-184.96,8.42-207.39-254.91-23.72-277.93,76.75-6.55,144.28,50.35,150.83,127.1Z"/><path class="cls-12" d="M374.36,746.17c6.55,76.75-50.35,144.28-127.1,150.83-184.96,8.42-207.39-254.91-23.72-277.93,76.75-6.55,144.28,50.35,150.83,127.1Z"/><path class="cls-3" d="M348.52,761.97c5.92,69.29-45.46,130.26-114.76,136.18-166.99,7.6-187.24-230.15-21.42-250.93,69.29-5.92,130.26,45.46,136.18,114.76Z"/><path class="cls-7" d="M246.29,885.6c-4.5.38-8.45-2.95-8.84-7.45l-20.39-238.85c-.38-4.5,2.95-8.45,7.45-8.84,4.5-.38,8.45,2.95,8.84,7.45l20.39,238.85c.38,4.5-2.95,8.45-7.45,8.84Z"/><path class="cls-7" d="M293.49,868.1c-4.5.38-8.45-2.95-8.84-7.45l-18.11-212.11c-.38-4.5,2.95-8.45,7.45-8.84,4.5-.38,8.45,2.95,8.84,7.45l18.11,212.11c.38,4.5-2.95,8.45-7.45,8.84Z"/><path class="cls-7" d="M196.8,876.36c-4.5.38-8.45-2.95-8.84-7.45l-18.11-212.11c-.38-4.5,2.95-8.45,7.45-8.84,4.5-.38,8.45,2.95,8.84,7.45l18.11,212.11c.38,4.5-2.95,8.45-7.45,8.84Z"/><path class="cls-7" d="M338.88,829.3c-4.5.38-8.45-2.95-8.84-7.45l-12.19-142.77c-.38-4.5,2.95-8.45,7.45-8.84,4.5-.38,8.45,2.95,8.84,7.45l12.19,142.77c.38,4.5-2.95,8.45-7.45,8.84Z"/><path class="cls-7" d="M145.49,845.81c-4.5.38-8.45-2.95-8.84-7.45l-12.19-142.77c-.38-4.5,2.95-8.45,7.45-8.84,4.5-.38,8.45,2.95,8.84,7.45l12.19,142.77c.38,4.5-2.95,8.45-7.45,8.84Z"/><path class="cls-13" d="M172.35,694.82c.98,18.01-25.1,20.23-27.18,2.32-.98-18.01,25.1-20.23,27.18-2.32Z"/><path class="cls-13" d="M313.99,682.73c.98,18.01-25.1,20.23-27.18,2.32-.98-18.01,25.1-20.23,27.18-2.32Z"/><path class="cls-13" d="M325.75,820.43c.98,18.01-25.1,20.23-27.18,2.32-.98-18.01,25.1-20.23,27.18-2.32Z"/><path class="cls-13" d="M184.11,832.52c.98,18.01-25.1,20.23-27.18,2.32-.98-18.01,25.1-20.23,27.18-2.32Z"/><path class="cls-11" d="M455.55,382.63c1.67,14.3,22.48,12.52,21.7-1.85-1.66-14.3-22.48-12.53-21.7,1.85Z"/><path class="cls-11" d="M402.97,387.11c1.67,14.31,22.48,12.51,21.7-1.85-1.66-14.3-22.48-12.53-21.7,1.85Z"/><path class="cls-13" d="M290.67,332.71c2.06,24.09,23.26,41.95,47.36,39.9,57.67-7.24,50.59-89.9-7.45-87.26-24.1,2.06-41.97,23.26-39.91,47.36Z"/><path class="cls-9" d="M264.76,256.28c1.34-14.92,14.51-25.93,29.43-24.59l73.62,6.6c14.92,1.34,25.94,14.52,24.6,29.43h0c-1.34,14.92-14.52,25.93-29.44,24.59l-73.62-6.6c-14.92-1.34-25.92-14.51-24.59-29.43h0Z"/><path class="cls-9" d="M313.01,330.81c1.07,12.57,12.15,21.91,24.72,20.84,30.12-3.75,26.4-46.99-3.89-45.57-12.58,1.07-21.91,12.15-20.83,24.74Z"/><path class="cls-4" d="M312.04,319.41c1.75,15.02,23.6,13.15,22.78-1.95-1.75-15.02-23.6-13.16-22.78,1.95Z"/><path class="cls-4" d="M346.48,341.3c.78,7.02,11.09,6.13,10.66-.91-.78-7.02-11.09-6.14-10.66.91Z"/><path class="cls-13" d="M482.3,316.36c2.06,24.09,23.25,41.95,47.35,39.9,57.69-7.24,50.6-89.91-7.45-87.26-24.09,2.06-41.95,23.26-39.9,47.36Z"/><path class="cls-9" d="M503.14,314.58c1.07,12.57,12.15,21.91,24.72,20.84,30.12-3.75,26.4-46.99-3.89-45.57-12.58,1.07-21.91,12.15-20.83,24.74Z"/><path class="cls-4" d="M502.17,303.18c1.75,15.02,23.6,13.15,22.78-1.95-1.75-15.02-23.6-13.16-22.78,1.95Z"/><path class="cls-4" d="M536.61,325.07c.78,7.02,11.09,6.13,10.66-.91-.78-7.02-11.09-6.14-10.66.91Z"/><path class="cls-9" d="M457.71,259.76c3.3,14.61,17.82,23.78,32.42,20.48l72.1-16.28c14.61-3.3,23.78-17.82,20.48-32.43h0c-3.3-14.61-17.82-23.78-32.43-20.48l-72.1,16.28c-14.61,3.3-23.78,17.81-20.48,32.43h0Z"/><path class="cls-9" d="M519.48,98.73c-2.85-33.38-32.22-58.12-65.59-55.28l-72.14,6.16c-33.37,2.85-58.12,32.22-55.27,65.59h0c2.85,33.37,32.21,58.13,65.58,55.28l72.14-6.16c33.37-2.85,58.12-32.22,55.28-65.59h0Z"/><path class="cls-9" d="M515.74,53.14c2.26,26.46-17.37,49.75-43.83,52-63.78,2.9-71.51-87.9-8.18-95.84,26.46-2.26,49.75,17.36,52.01,43.83Z"/><path class="cls-9" d="M445.1,43.59c1.41,16.55-10.86,31.1-27.42,32.52-39.89,1.81-44.72-54.95-5.12-59.93,16.56-1.41,31.12,10.85,32.54,27.41Z"/><path class="cls-9" d="M362.05,128.1c-2.12,22.69-22.25,39.37-44.95,37.25-54.32-7.27-47.02-85.11,7.68-82.19,22.7,2.12,39.39,22.24,37.27,44.94Z"/><path class="cls-9" d="M509.84,92.53c3.18,37.27-24.46,70.07-61.73,73.25-89.83,4.09-100.72-123.8-11.52-134.98,37.28-3.18,70.08,24.45,73.26,61.73Z"/><path class="cls-15" d="M475.87,75.24c-3.44.5-5.6-2.75-8.01-4.68-2.6-2.17-2.96-6.04-.8-8.64,2.17-2.6,6.04-2.96,8.64-.79,1.41,1.16,2.76,2.42,4.04,3.72,3.66,3.52,1.11,10.13-3.86,10.4Z"/><path class="cls-15" d="M396.34,111.6c-3.38.29-6.35-2.22-6.64-5.59-2.47-28.88,19.03-54.38,47.91-56.85,3.37-.29,6.35,2.21,6.64,5.59.29,3.37-2.22,6.34-5.59,6.63-22.14,1.89-38.62,21.45-36.73,43.59.29,3.37-2.21,6.34-5.59,6.63Z"/><path class="cls-6" d="M431.24,480.63c1.18,13.79-11.68,26.15-28.73,27.6-41.06,2.15-45.08-45.1-4.26-49.93,17.04-1.45,31.81,8.54,32.99,22.33Z"/><path class="cls-10" d="M367.89,450.07c-.64-7.53.59-14.85,3.35-21.68l128.03-10.93c13.86,21.65,6.51,49.61-13.88,65.62-33.65-15.92-73.32-24.3-115.39-22.68-1.08-3.31-1.81-6.76-2.11-10.33Z"/><path class="cls-6" d="M370,460.4c42.07-1.62,81.74,6.76,115.39,22.68-34.92,29.81-101.65,20.01-115.39-22.68Z"/><path class="cls-13" d="M445.25,442.57l-56.42,4.82c-5.31.45-9.98-3.48-10.43-8.79l-.92-10.75,77.22-6.59.78,9.17c.53,6.18-4.05,11.61-10.23,12.14Z"/><path class="cls-13" d="M485.68,439.12l-9.19.78c-5.33.45-10.01-3.5-10.47-8.82l-.91-10.71,28.48-2.43.91,10.71c.45,5.33-3.5,10.01-8.82,10.47Z"/><path class="cls-7" d="M632.69,610.94c.88-1.91,1.77-3.82,2.65-5.72,1.63-3.52,3.26-7.04,4.89-10.57.34-.73.68-1.47,1.02-2.2.41-.88.81-1.76,1.22-2.64.47-1.03.95-2.05,1.43-3.08.41-.88.81-1.76,1.22-2.64.27-.59.54-1.17.82-1.76.47-1.03.95-2.05,1.43-3.08.34-.73.68-1.47,1.02-2.2.13-.29.27-.59.41-.88.27-.59.54-1.17.82-1.76.2-.44.41-.88.61-1.32.27-.59.54-1.17.82-1.76.13-.29.27-.59.41-.88.2-.44.41-.88.61-1.32.41-.88.81-1.76,1.22-2.64.41-.88.82-1.76,1.22-2.64.34-.73.68-1.47,1.02-2.2.13-.29.27-.59.41-.88.06-.15.14-.29.2-.44.2-.44.41-.88.61-1.32.27-.59.54-1.18.82-1.76.41-.88.81-1.76,1.22-2.64.06-.15.14-.29.2-.44.2-.44.41-.88.61-1.32.06-.15.14-.29.2-.44.2-.44.41-.88.61-1.32.06-.15.14-.29.2-.44.2-.44.41-.88.61-1.32.27-.59.54-1.17.82-1.76.06-.15.14-.29.2-.44.06-.15.14-.29.2-.44.06-.15.14-.29.2-.44.27-.59.54-1.17.82-1.76.06-.15.14-.29.2-.44.13-.3.27-.59.41-.88.06-.15.14-.29.2-.44.07-.15.14-.29.2-.44.13-.29.27-.59.41-.88.06-.15.14-.29.2-.44.06-.15.14-.29.2-.44.06-.15.14-.29.2-.44.34-.73.68-1.47,1.02-2.2.06-.15.14-.29.2-.44.06-.15.14-.29.2-.44.13-.29.27-.59.41-.88.06-.15.14-.29.2-.44.13-.29.27-.59.41-.88.06-.15.14-.29.2-.44.06-.15.14-.29.2-.44.06-.15.14-.29.2-.44.2-.44.41-.88.61-1.32.13-.29.27-.59.41-.88.06-.15.14-.29.2-.44.06-.15.14-.29.2-.44.06-.15.14-.29.2-.44.13-.29.27-.59.41-.88.06-.15.14-.29.2-.44.06-.15.14-.29.2-.44.06-.15.14-.29.2-.44.06-.15.14-.29.2-.44.06-.15.14-.29.2-.44.06-.15.14-.29.2-.44.27-.59.54-1.18.82-1.76.06-.15.14-.29.2-.44.06-.15.14-.29.2-.44.06-.15.14-.29.2-.44.12-.27.25-.54.37-.81.29-.85.62-1.67.99-2.49.29-.85.62-1.67.99-2.49.29-.84.62-1.67.99-2.49.29-.84.62-1.67.99-2.49.29-.85.62-1.67.99-2.49.29-.84.62-1.67.99-2.49.29-.84.62-1.67.99-2.49.29-.84.62-1.67.99-2.49.29-.84.62-1.67.99-2.49.29-.84.62-1.67.99-2.49.29-.84.62-1.67.99-2.49.29-.84.62-1.67.99-2.49.29-.84.62-1.67.99-2.49.29-.84.62-1.67.99-2.49.29-.84.62-1.67.99-2.49.29-.84.62-1.67.99-2.49.29-.84.62-1.67.99-2.49.29-.84.62-1.67.99-2.49.29-.84.62-1.67.99-2.49.29-.84.62-1.67.99-2.49.29-.84.62-1.67.99-2.49.29-.84.62-1.67.99-2.49.29-.84.62-1.67.99-2.49.29-.84.62-1.67.99-2.49.29-.84.62-1.67.99-2.49.29-.84.62-1.67.99-2.49.29-.84.62-1.67.99-2.49.29-.84.62-1.67.99-2.49.29-.84.62-1.67.99-2.49.29-.84.62-1.67.99-2.49.29-.84.62-1.67.99-2.49.29-.84.62-1.67.99-2.49.29-.84.62-1.67.99-2.49.29-.84.62-1.67.99-2.49.29-.84.62-1.67.99-2.49.29-.84.62-1.67.99-2.49.29-.84.62-1.67.99-2.49.29-.84.62-1.67.99-2.49.29-.84.62-1.67.99-2.49.29-.84.62-1.67.99-2.49.29-.84.62-1.67.99-2.49.29-.84.62-1.67.99-2.49.29-.84.62-1.67.99-2.49.29-.84.62-1.67.99-2.49.29-.84.62-1.67.99-2.49.29-.84.62-1.67.99-2.49.29-.84.62-1.67.99-2.49.29-.84.62-1.67.99-2.49.29-.84.62-1.67.99-2.49.29-.84.62-1.67.99-2.49.29-.84.62-1.67.99-2.49.29-.84.62-1.67.99-2.49.29-.84.62-1.67.99-2.49.29-.84.62-1.67.99-2.49.29-.84.62-1.67.99-2.49.29-.84.62-1.67.99-2.49.29-.84.62-1.67.99-2.49.29-.84.62-1.67.99-2.49.29-.84.62-1.67.99-2.49.3-.84.62-1.67.99-2.49.3-.84.62-1.67.99-2.49.29-.84.62-1.67.99-2.49.3-.84.62-1.67.99-2.49.3-.84.62-1.67.99-2.49.3-.84.62-1.67.99-2.49.3-.84.62-1.67.99-2.49.3-.84.62-1.67.99-2.49.3-.84.62-1.67.99-2.49.3-.84.62-1.67.99-2.49.3-.84.62-1.67.99-2.49.3-.84.62-1.67.99-2.49.3-.84.62-1.67.99-2.49.3-.84.62-1.67.99-2.49.3-.84.62-1.67.99-2.49.3-.84.62-1.67.99-2.49.3-.84.62-1.67.99-2.49.3-.84.62-1.67.99-2.49.3-.84.62-1.67.99-2.49.3-.84.62-1.67.99-2.49.3-.84.62-1.67.99-2.49.3-.84.62-1.67.99-2.49.3-.84.62-1.67.99-2.49.3-.84.62-1.67.99-2.49.3-.84.62-1.67.99-2.49.3-.84.62-1.67.99-2.49.3-.84.62-1.67.99-2.49.3-.84.62-1.67.99-2.49.3-.84.62-1.67.99-2.49.3-.84.62-1.67.99-2.49.3-.84.62-1.67.99-2.49.3-.84.62-1.67.99-2.49.3-.84.62-1.67.99-2.49.3-.84.62-1.67.99-2.49.3-.84.62-1.67.99-2.49.3-.84.62-1.67.99-2.49.3-.84.62-1.67.99-2.49.3-.84.62-1.67.99-2.49.3-.84.62-1.67.99-2.49.3-.84.62-1.67.99-2.49.3-.84.62-1.67.99-2.49.3-.84.62-1.67.99-2.49.3-.84.62-1.67.99-2.49.3-.84.62-1.67.99-2.49.3-.84.62-1.67.99-2.49.3-.84.62-1.67.99-2.49.3-.84.62-1.67.99-2.49.3-.84.62-1.67.99-2.49.3-.84.62-1.67.99-2.49.3-.84.62-1.67.99-2.49.3-.84.62-1.67.99-2.49.3-.84.62-1.67.99-2.49.3-.84.62-1.67.99-2.49.3-.84.62-1.67.99-2.49.3-.84.62-1.67.99-2.49.3-.84.62-1.67.99-2.49.3-.84.62-1.67.99-2.49.3-.84.62-1.67.99-2.49.3-.84.62-1.67.99-2.49.3-.84.62-1.67.99-2.49.3-.84.62-1.67.99-2.49.3-.84.62-1.67.99-2.49.3-.84.62-1.67.99-2.49.3-.84.62-1.67.99-2.49.3-.84.62-1.67.99-2.49.3-.84.62-1.67.99-2.49.3-.84.62-1.67.99-2.49.3-.84.62-1.67.99-2.49.3-.84.62-1.67.99-2.49.3-.84.62-1.67.99-2.49.3-.84.62-1.67.99-2.49.3-.84.62-1.67.99-2.49.3-.84.62-1.67.99-2.49.3-.84.62-1.67.99-2.49.3-.84.62-1.67.99-2.49.3-.84.62-1.67.99-2.49.3-.84.62-1.67.99-2.49.3-.84.62-1.67.99-2.49.3-.84.62-1.67.99-2.49.3-.84.62-1.67.99-2.49.3-.84.62-1.67.99-2.49.3-.84.62-1.67.99-2.49.31-.84.62-1.67.99-2.49.3-.84.62-1.67.99-2.49.31-.84.62-1.67.99-2.49.31-.84.62-1.67.99-2.49.3-.84.62-1.67.99-2.48.31-.84.62-1.67.99-2.49.31-.84.62-1.67.99-2.49.31-.84.62-1.67.99-2.49.31-.84.62-1.67.99-2.49.31-.84.62-1.67.99-2.49.31-.84.62-1.67.99-2.49.31-.84.62-1.67.99-2.49.31-.84.62-1.67.99-2.49.31-.84.62-1.67.99-2.49.31-.84.62-1.67.99-2.49.31-.84.62-1.67.99-2.49.31-.84.62-1.67.99-2.49.31-.84.62-1.67.99-2.49.31-.84.62-1.67.99-2.49.31-.84.62-1.67.99-2.49.31-.84.62-1.67.99-2.49.31-.84.62-1.67.99-2.49.31-.84.62-1.67.99-2.49.31-.84.62-1.67.99-2.49.31-.84.62-1.67.99-2.49.31-.84.62-1.67.99-2.49.31-.84.62-1.67.99-2.49.31-.84.62-1.67.99-2.49.31-.84.62-1.67.99-2.49.31-.84.62-1.67.99-2.49.31-.84.62-1.67.99-2.49.31-.84.62-1.67.99-2.49.31-.84.62-1.67.99-2.49.31-.84.62-1.67.99-2.49.31-.84.62-1.67.99-2.49.31-.84.62-1.67.99-2.49.31-.84.62-1.67.99-2.49.31-.84.62-1.67.99-2.49.31-.84.62-1.67.99-2.49.31-.84.62-1.67.99-2.49.31-.84.62-1.67.99-2.49.31-.84.62-1.67.99-2.49.31-.84.62-1.67.99-2.49.31-.84.62-1.67.99-2.49.31-.84.62-1.67.99-2.49.31-.84.62-1.67.99-2.49.31-.84.62-1.67.99-2.49.31-.84.62-1.67.99-2.49.31-.84.62-1.67.99-2.49.31-.84.62-1.67.99-2.49.31-.84.62-1.67.99-2.49.31-.84.62-1.67.99-2.49.31-.84.62-1.67.99-2.49.31-.84.62-1.67.99-2.49.31-.84.62-1.67.99-2.49.31-.84.62-1.67.99-2.49.31-.84.62-1.67.99-2.49.31-.84.62-1.67.99-2.49.31-.84.62-1.67.99-2.49,10.62-29.76,52.47-34.23,69.11-7.03,7.38,11.8,7.57,26.03,1.84,37.66-.34.82-.71,1.63-1.1,2.44-.34.83-.71,1.64-1.11,2.44-.34.82-.71,1.63-1.1,2.44-.34.83-.71,1.63-1.1,2.44-.34.82-.71,1.63-1.1,2.43-.34.83-.71,1.64-1.11,2.44-.34.82-.71,1.63-1.1,2.44-.34.83-.71,1.63-1.1,2.44-.34.82-.71,1.63-1.1,2.44-.34.83-.71,1.64-1.1,2.44-.34.82-.71,1.63-1.1,2.44-.34.83-.71,1.63-1.1,2.44-.34.83-.71,1.64-1.11,2.44-.34.83-.71,1.63-1.1,2.44-.34.83-.71,1.63-1.1,2.44-.34.83-.71,1.63-1.1,2.44-.34.83-.71,1.64-1.1,2.44-.34.83-.71,1.63-1.1,2.44-.34.83-.71,1.64-1.1,2.44-.34.83-.71,1.63-1.1,2.44-.34.82-.71,1.63-1.1,2.44-.34.83-.71,1.64-1.1,2.44-.34.83-.71,1.63-1.1,2.44-.34.83-.71,1.64-1.1,2.44-.34.83-.71,1.64-1.1,2.44-.34.83-.71,1.63-1.1,2.44-.34.83-.71,1.64-1.1,2.44-.34.83-.71,1.63-1.1,2.44-.34.83-.71,1.64-1.1,2.44-.34.83-.71,1.64-1.11,2.44-.34.83-.71,1.63-1.1,2.44-.34.83-.71,1.64-1.1,2.44-.34.83-.71,1.64-1.1,2.44-.34.83-.71,1.64-1.1,2.44-.34.83-.71,1.64-1.1,2.44-.34.83-.71,1.64-1.1,2.44-.34.83-.71,1.64-1.1,2.44-.34.83-.71,1.64-1.1,2.44-.34.83-.71,1.64-1.1,2.44-.34.83-.71,1.63-1.1,2.44-.34.83-.71,1.64-1.11,2.44-.34.83-.71,1.63-1.1,2.44-.34.83-.71,1.63-1.1,2.44-.34.83-.71,1.64-1.1,2.44-.34.83-.71,1.64-1.1,2.44-.34.83-.71,1.64-1.1,2.44-.34.83-.71,1.64-1.1,2.44-.34.83-.71,1.63-1.1,2.43-.34.83-.71,1.64-1.11,2.44-.34.83-.71,1.63-1.1,2.43-.34.83-.71,1.64-1.1,2.44-.34.83-.71,1.64-1.1,2.44-.34.83-.71,1.64-1.1,2.44-.34.83-.71,1.64-1.1,2.44-.34.83-.71,1.64-1.1,2.44-.34.83-.71,1.64-1.1,2.44-.34.83-.71,1.64-1.1,2.44-.34.83-.71,1.64-1.1,2.44-.34.83-.71,1.64-1.1,2.44-.34.83-.71,1.64-1.11,2.44-.34.83-.71,1.64-1.1,2.44-.34.83-.71,1.64-1.11,2.44-.34.83-.71,1.64-1.1,2.44-.34.83-.71,1.64-1.11,2.44-.34.83-.71,1.64-1.1,2.43-.34.83-.71,1.64-1.1,2.44-.34.83-.71,1.64-1.1,2.44-.34.83-.71,1.64-1.1,2.44-.34.83-.71,1.64-1.1,2.44-.34.83-.71,1.64-1.1,2.44-.33.83-.71,1.64-1.1,2.44-.33.83-.71,1.64-1.1,2.44-.33.83-.71,1.64-1.1,2.44-.34.83-.71,1.64-1.1,2.44-.33.83-.7,1.64-1.1,2.44-.33.83-.71,1.64-1.11,2.44-.33.83-.7,1.64-1.1,2.44-.33.83-.7,1.64-1.1,2.44-.33.83-.7,1.64-1.1,2.44-.33.83-.71,1.64-1.11,2.44-.33.83-.7,1.64-1.1,2.44-.33.83-.7,1.64-1.1,2.44-.33.83-.7,1.64-1.1,2.44-.33.83-.7,1.64-1.1,2.44-.33.83-.7,1.64-1.1,2.44-.33.83-.7,1.64-1.1,2.44-.33.83-.7,1.64-1.11,2.44-.33.83-.7,1.64-1.1,2.44-.33.83-.7,1.64-1.1,2.44-.33.83-.7,1.64-1.1,2.44-.33.83-.7,1.64-1.1,2.44-.33.83-.7,1.64-1.1,2.44-.33.83-.7,1.64-1.1,2.44-.33.83-.7,1.64-1.1,2.44-.33.83-.7,1.64-1.1,2.44-.33.83-.7,1.64-1.1,2.44-.33.83-.7,1.64-1.1,2.44-.33.83-.7,1.64-1.1,2.44-.33.83-.7,1.64-1.1,2.44-.33.83-.7,1.64-1.1,2.44-.33.83-.7,1.64-1.11,2.44-.33.83-.7,1.64-1.1,2.44-.33.83-.7,1.64-1.1,2.44-.33.83-.7,1.64-1.1,2.44-.33.83-.7,1.64-1.11,2.44-.33.83-.7,1.64-1.1,2.44-.33.83-.7,1.64-1.1,2.44-.33.83-.7,1.64-1.1,2.44-.33.83-.7,1.64-1.1,2.44-.33.83-.7,1.64-1.1,2.44-.33.83-.7,1.64-1.1,2.44-.33.83-.7,1.64-1.1,2.44-.33.83-.7,1.64-1.1,2.44-.33.83-.7,1.64-1.1,2.44-.33.83-.7,1.64-1.1,2.44-.33.83-.7,1.64-1.1,2.44-.33.83-.7,1.64-1.1,2.44-.33.83-.7,1.64-1.1,2.44-.33.83-.7,1.64-1.1,2.44-.33.83-.7,1.64-1.1,2.44-.33.83-.7,1.64-1.1,2.44-.33.83-.7,1.64-1.1,2.44-.33.83-.7,1.64-1.1,2.44-.33.83-.7,1.64-1.1,2.44-.33.83-.7,1.64-1.11,2.44-.33.83-.7,1.64-1.1,2.44-.33.83-.7,1.64-1.1,2.44-.33.83-.7,1.64-1.1,2.44-.33.83-.7,1.64-1.1,2.44-.33.83-.7,1.64-1.1,2.44-.33.83-.7,1.64-1.1,2.44-.33.83-.7,1.64-1.1,2.44-.33.83-.7,1.64-1.1,2.44-.33.83-.7,1.64-1.11,2.44-.33.83-.7,1.64-1.1,2.43-.33.83-.7,1.64-1.11,2.44-.33.83-.7,1.64-1.1,2.44-.33.83-.7,1.64-1.1,2.44-.33.83-.7,1.64-1.1,2.44-.33.83-.7,1.64-1.1,2.44-.33.83-.7,1.64-1.11,2.44-.33.83-.7,1.64-1.1,2.44-.33.83-.7,1.64-1.1,2.44-.33.83-.7,1.64-1.1,2.44-.33.83-.7,1.64-1.1,2.44-.33.83-.7,1.64-1.1,2.44-.33.83-.7,1.64-1.1,2.44-.33.83-.7,1.64-1.1,2.44-.33.83-.7,1.64-1.1,2.44-.33.83-.7,1.64-1.1,2.44-.33.83-.7,1.64-1.1,2.44-.33.83-.7,1.64-1.1,2.44-.33.83-.7,1.64-1.1,2.44-.33.83-.7,1.64-1.1,2.44-.33.83-.7,1.64-1.1,2.44-.33.83-.7,1.64-1.1,2.44-.33.83-.7,1.64-1.1,2.44-.33.83-.7,1.64-1.11,2.44-.33.83-.7,1.64-1.1,2.44-.33.83-.7,1.64-1.1,2.44-.33.83-.7,1.64-1.1,2.44-.33.83-.7,1.64-1.1,2.44-.33.83-.7,1.64-1.1,2.44-.33.83-.7,1.64-1.1,2.44-.33.83-.7,1.64-1.1,2.44-.33.83-.7,1.64-1.1,2.44-.33.83-.7,1.64-1.1,2.44-.33.83-.7,1.64-1.1,2.44-.33.83-.7,1.64-1.1,2.44-.33.83-.7,1.64-1.1,2.44-.33.83-.7,1.64-1.1,2.44-.33.83-.7,1.64-1.1,2.44-.33.83-.7,1.64-1.11,2.44-.33.83-.7,1.64-1.1,2.44-.33.83-.7,1.64-1.1,2.44-.33.83-.7,1.64-1.1,2.44-.33.83-4.61.24-5.02,1.03-.33.83,3.22,3.04,2.81,3.84-.33.83-.7,1.64-1.1,2.44-.33.83-.7,1.64-1.1,2.44-.33.83-.7,1.64-1.11,2.44-.33.83-.7,1.64-1.1,2.44-.33.83-.7,1.64-1.1,2.44-.33.83-.7,1.64-1.1,2.44-.33.83-.7,1.64-1.1,2.44-.33.83-.7,1.64-1.1,2.44-.33.83-.69,1.64-1.1,2.44-.33.83-.7,1.64-1.1,2.44-.33.83-.7,1.64-1.11,2.44-.33.83-.69,1.64-1.1,2.44-.33.83-.7,1.64-1.1,2.44-.33.83-.69,1.64-1.1,2.44-.33.83-.69,1.64-1.1,2.44-.33.83-.69,1.64-1.1,2.44-.33.83-.69,1.64-1.1,2.44-.33.83-.69,1.64-1.11,2.44-.33.83-.69,1.64-1.1,2.44-.33.83-.69,1.64-1.1,2.44-.33.83-.69,1.64-1.1,2.44-.26.67-.56,1.33-.88,1.98-.03.09-.06.17-.09.26-.05.15-.1.31-.15.46-.05.15-.1.31-.15.46-.05.15-.1.31-.15.46-.05.15-.1.31-.15.46-.05.15-.1.31-.15.46-.05.15-.1.31-.15.46-.05.15-.1.31-.15.46-.05.15-.1.31-.15.46-.15.46-.29.92-.44,1.38-.05.15-.1.31-.15.46-.05.15-.1.31-.15.46-.05.15-.1.31-.15.46-.05.15-.1.31-.15.46-.05.15-.1.31-.15.46-.05.15-.1.31-.15.46-.1.31-.2.62-.3.92-.05.15-.1.31-.15.46-.05.15-.1.31-.15.46-.15.46-.29.92-.45,1.39-.05.15-.1.31-.15.46-.05.15-.1.31-.15.46-.1.31-.2.62-.3.92-.05.15-.1.31-.15.46-.05.15-.1.31-.15.46-.1.31-.2.62-.3.92-.05.15-.1.31-.15.46-.05.15-.1.31-.15.46-.05.15-.1.31-.15.46-.15.46-.29.92-.44,1.38-.15.46-.29.92-.45,1.39-.1.31-.2.62-.3.92-.05.15-.1.31-.15.46-.05.15-.1.31-.15.46-.05.15-.1.31-.15.46-.25.77-.49,1.54-.74,2.31-.1.31-.2.62-.3.92-.25.77-.49,1.54-.74,2.31-.05.15-.1.31-.15.46-.05.15-.1.31-.15.46-.1.31-.2.62-.3.92-.3.92-.59,1.85-.89,2.77-.39,1.23-.79,2.46-1.19,3.7-.1.31-.2.62-.3.92-.05.15-.1.31-.15.46-.1.31-.2.62-.3.93-.15.46-.29.92-.44,1.38-.1.31-.2.62-.3.92-.05.15-.1.31-.15.46-.3.92-.59,1.85-.89,2.77-.25.77-.49,1.54-.74,2.31-.1.31-.2.62-.3.92-.44,1.39-.89,2.77-1.33,4.16-.05.15-.1.31-.15.46-.35,1.08-.69,2.16-1.04,3.23-.05.15-.1.31-.15.46-.15.46-.29.92-.45,1.39-.2.62-.39,1.23-.59,1.85-.15.46-.29.92-.45,1.39-.59,1.85-1.18,3.69-1.78,5.54-.05.15-.1.31-.15.46-.2.62-.39,1.23-.59,1.85-.1.31-.2.62-.3.92-1.33,4.16-2.67,8.31-4,12.47-.94,2.93-1.88,5.85-2.82,8.78-6.78,27.3-43.48,33.6-58.58,9.43-5.94-9.51-6.29-20.92-1.96-30.41Z"/><g class="cls-8"><path class="cls-3" d="M612.81,608.99c.88-1.91,1.77-3.82,2.65-5.72,1.63-3.52,3.26-7.04,4.89-10.57.34-.73.68-1.47,1.02-2.2.41-.88.81-1.76,1.22-2.64.47-1.03.95-2.05,1.43-3.08.41-.88.81-1.76,1.22-2.64.27-.59.54-1.17.82-1.76.47-1.03.95-2.05,1.43-3.08.34-.73.68-1.47,1.02-2.2.13-.29.27-.59.41-.88.27-.59.54-1.17.82-1.76.2-.44.41-.88.61-1.32.27-.59.54-1.17.82-1.76.13-.29.27-.59.41-.88.2-.44.41-.88.61-1.32.41-.88.81-1.76,1.22-2.64.41-.88.82-1.76,1.22-2.64.34-.73.68-1.47,1.02-2.2.13-.29.27-.59.41-.88.06-.15.14-.29.2-.44.2-.44.41-.88.61-1.32.27-.59.54-1.18.82-1.76.41-.88.81-1.76,1.22-2.64.06-.15.14-.29.2-.44.2-.44.41-.88.61-1.32.06-.15.14-.29.2-.44.2-.44.41-.88.61-1.32.06-.15.14-.29.2-.44.2-.44.41-.88.61-1.32.27-.59.54-1.17.82-1.76.06-.15.14-.29.2-.44.06-.15.14-.29.2-.44.06-.15.14-.29.2-.44.27-.59.54-1.17.82-1.76.06-.15.14-.29.2-.44.13-.3.27-.59.41-.88.06-.15.14-.29.2-.44.07-.15.14-.29.2-.44.13-.29.27-.59.41-.88.06-.15.14-.29.2-.44.06-.15.14-.29.2-.44.06-.15.14-.29.2-.44.34-.73.68-1.47,1.02-2.2.06-.15.14-.29.2-.44.06-.15.14-.29.2-.44.13-.29.27-.59.41-.88.06-.15.14-.29.2-.44.13-.29.27-.59.41-.88.06-.15.14-.29.2-.44.06-.15.14-.29.2-.44.06-.15.14-.29.2-.44.2-.44.41-.88.61-1.32.13-.29.27-.59.41-.88.06-.15.14-.29.2-.44.06-.15.14-.29.2-.44.06-.15.14-.29.2-.44.13-.29.27-.59.41-.88.06-.15.14-.29.2-.44.06-.15.14-.29.2-.44.06-.15.14-.29.2-.44.06-.15.14-.29.2-.44.06-.15.14-.29.2-.44.06-.15.14-.29.2-.44.27-.59.54-1.18.82-1.76.06-.15.14-.29.2-.44.06-.15.14-.29.2-.44.06-.15.14-.29.2-.44.12-.27.25-.54.37-.81.29-.85.62-1.67.99-2.49.29-.85.62-1.67.99-2.49.29-.84.62-1.67.99-2.49.29-.84.62-1.67.99-2.49.29-.85.62-1.67.99-2.49.29-.84.62-1.67.99-2.49.29-.84.62-1.67.99-2.49.29-.84.62-1.67.99-2.49.29-.84.62-1.67.99-2.49.29-.84.62-1.67.99-2.49.29-.84.62-1.67.99-2.49.29-.84.62-1.67.99-2.49.29-.84.62-1.67.99-2.49.29-.84.62-1.67.99-2.49.29-.84.62-1.67.99-2.49.29-.84.62-1.67.99-2.49.29-.84.62-1.67.99-2.49.29-.84.62-1.67.99-2.49.29-.84.62-1.67.99-2.49.29-.84.62-1.67.99-2.49.29-.84.62-1.67.99-2.49.29-.84.62-1.67.99-2.49.29-.84.62-1.67.99-2.49.29-.84.62-1.67.99-2.49.29-.84.62-1.67.99-2.49.29-.84.62-1.67.99-2.49.29-.84.62-1.67.99-2.49.29-.84.62-1.67.99-2.49.29-.84.62-1.67.99-2.49.29-.84.62-1.67.99-2.49.29-.84.62-1.67.99-2.49.29-.84.62-1.67.99-2.49.29-.84.62-1.67.99-2.49.29-.84.62-1.67.99-2.49.29-.84.62-1.67.99-2.49.29-.84.62-1.67.99-2.49.29-.84.62-1.67.99-2.49.29-.84.62-1.67.99-2.49.29-.84.62-1.67.99-2.49.29-.84.62-1.67.99-2.49.29-.84.62-1.67.99-2.49.29-.84.62-1.67.99-2.49.29-.84.62-1.67.99-2.49.29-.84.62-1.67.99-2.49.29-.84.62-1.67.99-2.49.29-.84.62-1.67.99-2.49.29-.84.62-1.67.99-2.49.29-.84.62-1.67.99-2.49.29-.84.62-1.67.99-2.49.29-.84.62-1.67.99-2.49.29-.84.62-1.67.99-2.49.29-.84.62-1.67.99-2.49.29-.84.62-1.67.99-2.49.29-.84.62-1.67.99-2.49.29-.84.62-1.67.99-2.49.29-.84.62-1.67.99-2.49.29-.84.62-1.67.99-2.49.29-.84.62-1.67.99-2.49.29-.84.62-1.67.99-2.49.3-.84.62-1.67.99-2.49.3-.84.62-1.67.99-2.49.29-.84.62-1.67.99-2.49.3-.84.62-1.67.99-2.49.3-.84.62-1.67.99-2.49.3-.84.62-1.67.99-2.49.3-.84.62-1.67.99-2.49.3-.84.62-1.67.99-2.49.3-.84.62-1.67.99-2.49.3-.84.62-1.67.99-2.49.3-.84.62-1.67.99-2.49.3-.84.62-1.67.99-2.49.3-.84.62-1.67.99-2.49.3-.84.62-1.67.99-2.49.3-.84.62-1.67.99-2.49.3-.84.62-1.67.99-2.49.3-.84.62-1.67.99-2.49.3-.84.62-1.67.99-2.49.3-.84.62-1.67.99-2.49.3-.84.62-1.67.99-2.49.3-.84.62-1.67.99-2.49.3-.84.62-1.67.99-2.49.3-.84.62-1.67.99-2.49.3-.84.62-1.67.99-2.49.3-.84.62-1.67.99-2.49.3-.84.62-1.67.99-2.49.3-.84.62-1.67.99-2.49.3-.84.62-1.67.99-2.49.3-.84.62-1.67.99-2.49.3-.84.62-1.67.99-2.49.3-.84.62-1.67.99-2.49.3-.84.62-1.67.99-2.49.3-.84.62-1.67.99-2.49.3-.84.62-1.67.99-2.49.3-.84.62-1.67.99-2.49.3-.84.62-1.67.99-2.49.3-.84.62-1.67.99-2.49.3-.84.62-1.67.99-2.49.3-.84.62-1.67.99-2.49.3-.84.62-1.67.99-2.49.3-.84.62-1.67.99-2.49.3-.84.62-1.67.99-2.49.3-.84.62-1.67.99-2.49.3-.84.62-1.67.99-2.49.3-.84.62-1.67.99-2.49.3-.84.62-1.67.99-2.49.3-.84.62-1.67.99-2.49.3-.84.62-1.67.99-2.49.3-.84.62-1.67.99-2.49.3-.84.62-1.67.99-2.49.3-.84.62-1.67.99-2.49.3-.84.62-1.67.99-2.49.3-.84.62-1.67.99-2.49.3-.84.62-1.67.99-2.49.3-.84.62-1.67.99-2.49.3-.84.62-1.67.99-2.49.3-.84.62-1.67.99-2.49.3-.84.62-1.67.99-2.49.3-.84.62-1.67.99-2.49.3-.84.62-1.67.99-2.49.3-.84.62-1.67.99-2.49.3-.84.62-1.67.99-2.49.3-.84.62-1.67.99-2.49.3-.84.62-1.67.99-2.49.3-.84.62-1.67.99-2.49.3-.84.62-1.67.99-2.49.3-.84.62-1.67.99-2.49.3-.84.62-1.67.99-2.49.3-.84.62-1.67.99-2.49.3-.84.62-1.67.99-2.49.3-.84.62-1.67.99-2.49.3-.84.62-1.67.99-2.49.3-.84.62-1.67.99-2.49.3-.84.62-1.67.99-2.49.3-.84.62-1.67.99-2.49.3-.84.62-1.67.99-2.49.3-.84.62-1.67.99-2.49.3-.84.62-1.67.99-2.49.3-.84.62-1.67.99-2.49.3-.84.62-1.67.99-2.49.3-.84.62-1.67.99-2.49.3-.84.62-1.67.99-2.49.31-.84.62-1.67.99-2.49.3-.84.62-1.67.99-2.49.31-.84.62-1.67.99-2.49.31-.84.62-1.67.99-2.49.3-.84.62-1.67.99-2.48.31-.84.62-1.67.99-2.49.31-.84.62-1.67.99-2.49.31-.84.62-1.67.99-2.49.31-.84.62-1.67.99-2.49.31-.84.62-1.67.99-2.49.31-.84.62-1.67.99-2.49.31-.84.62-1.67.99-2.49.31-.84.62-1.67.99-2.49.31-.84.62-1.67.99-2.49.31-.84.62-1.67.99-2.49.31-.84.62-1.67.99-2.49.31-.84.62-1.67.99-2.49.31-.84.62-1.67.99-2.49.31-.84.62-1.67.99-2.49.31-.84.62-1.67.99-2.49.31-.84.62-1.67.99-2.49.31-.84.62-1.67.99-2.49.31-.84.62-1.67.99-2.49.31-.84.62-1.67.99-2.49.31-.84.62-1.67.99-2.49.31-.84.62-1.67.99-2.49.31-.84.62-1.67.99-2.49.31-.84.62-1.67.99-2.49.31-.84.62-1.67.99-2.49.31-.84.62-1.67.99-2.49.31-.84.62-1.67.99-2.49.31-.84.62-1.67.99-2.49.31-.84.62-1.67.99-2.49.31-.84.62-1.67.99-2.49.31-.84.62-1.67.99-2.49.31-.84.62-1.67.99-2.49.31-.84.62-1.67.99-2.49.31-.84.62-1.67.99-2.49.31-.84.62-1.67.99-2.49.31-.84.62-1.67.99-2.49.31-.84.62-1.67.99-2.49.31-.84.62-1.67.99-2.49.31-.84.62-1.67.99-2.49.31-.84.62-1.67.99-2.49.31-.84.62-1.67.99-2.49.31-.84.62-1.67.99-2.49.31-.84.62-1.67.99-2.49.31-.84.62-1.67.99-2.49.31-.84.62-1.67.99-2.49.31-.84.62-1.67.99-2.49.31-.84.62-1.67.99-2.49.31-.84.62-1.67.99-2.49.31-.84.62-1.67.99-2.49.31-.84.62-1.67.99-2.49.31-.84.62-1.67.99-2.49.31-.84.62-1.67.99-2.49.31-.84.62-1.67.99-2.49.31-.84.62-1.67.99-2.49.31-.84.62-1.67.99-2.49,10.62-29.76,52.47-34.23,69.11-7.03,7.38,11.8,7.57,26.03,1.84,37.66-.34.82-.71,1.63-1.1,2.44-.34.83-.71,1.64-1.11,2.44-.34.82-.71,1.63-1.1,2.44-.34.83-.71,1.63-1.1,2.44-.34.82-.71,1.63-1.1,2.43-.34.83-.71,1.64-1.11,2.44-.34.82-.71,1.63-1.1,2.44-.34.83-.71,1.63-1.1,2.44-.34.82-.71,1.63-1.1,2.44-.34.83-.71,1.64-1.1,2.44-.34.82-.71,1.63-1.1,2.44-.34.83-.71,1.63-1.1,2.44-.34.83-.71,1.64-1.11,2.44-.34.83-.71,1.63-1.1,2.44-.34.83-.71,1.63-1.1,2.44-.34.83-.71,1.63-1.1,2.44-.34.83-.71,1.64-1.1,2.44-.34.83-.71,1.63-1.1,2.44-.34.83-.71,1.64-1.1,2.44-.34.83-.71,1.63-1.1,2.44-.34.82-.71,1.63-1.1,2.44-.34.83-.71,1.64-1.1,2.44-.34.83-.71,1.63-1.1,2.44-.34.83-.71,1.64-1.1,2.44-.34.83-.71,1.64-1.1,2.44-.34.83-.71,1.63-1.1,2.44-.34.83-.71,1.64-1.1,2.44-.34.83-.71,1.63-1.1,2.44-.34.83-.71,1.64-1.1,2.44-.34.83-.71,1.64-1.11,2.44-.34.83-.71,1.63-1.1,2.44-.34.83-.71,1.64-1.1,2.44-.34.83-.71,1.64-1.1,2.44-.34.83-.71,1.64-1.1,2.44-.34.83-.71,1.64-1.1,2.44-.34.83-.71,1.64-1.1,2.44-.34.83-.71,1.64-1.1,2.44-.34.83-.71,1.64-1.1,2.44-.34.83-.71,1.64-1.1,2.44-.34.83-.71,1.63-1.1,2.44-.34.83-.71,1.64-1.11,2.44-.34.83-.71,1.63-1.1,2.44-.34.83-.71,1.63-1.1,2.44-.34.83-.71,1.64-1.1,2.44-.34.83-.71,1.64-1.1,2.44-.34.83-.71,1.64-1.1,2.44-.34.83-.71,1.64-1.1,2.44-.34.83-.71,1.63-1.1,2.43-.34.83-.71,1.64-1.11,2.44-.34.83-.71,1.63-1.1,2.43-.34.83-.71,1.64-1.1,2.44-.34.83-.71,1.64-1.1,2.44-.34.83-.71,1.64-1.1,2.44-.34.83-.71,1.64-1.1,2.44-.34.83-.71,1.64-1.1,2.44-.34.83-.71,1.64-1.1,2.44-.34.83-.71,1.64-1.1,2.44-.34.83-.71,1.64-1.1,2.44-.34.83-.71,1.64-1.1,2.44-.34.83-.71,1.64-1.11,2.44-.34.83-.71,1.64-1.1,2.44-.34.83-.71,1.64-1.11,2.44-.34.83-.71,1.64-1.1,2.44-.34.83-.71,1.64-1.11,2.44-.34.83-.71,1.64-1.1,2.43-.34.83-.71,1.64-1.1,2.44-.34.83-.71,1.64-1.1,2.44-.34.83-.71,1.64-1.1,2.44-.34.83-.71,1.64-1.1,2.44-.34.83-.71,1.64-1.1,2.44-.33.83-.71,1.64-1.1,2.44-.33.83-.71,1.64-1.1,2.44-.33.83-.71,1.64-1.1,2.44-.34.83-.71,1.64-1.1,2.44-.33.83-.7,1.64-1.1,2.44-.33.83-.71,1.64-1.11,2.44-.33.83-.7,1.64-1.1,2.44-.33.83-.7,1.64-1.1,2.44-.33.83-.7,1.64-1.1,2.44-.33.83-.71,1.64-1.11,2.44-.33.83-.7,1.64-1.1,2.44-.33.83-.7,1.64-1.1,2.44-.33.83-.7,1.64-1.1,2.44-.33.83-.7,1.64-1.1,2.44-.33.83-.7,1.64-1.1,2.44-.33.83-.7,1.64-1.1,2.44-.33.83-.7,1.64-1.11,2.44-.33.83-.7,1.64-1.1,2.44-.33.83-.7,1.64-1.1,2.44-.33.83-.7,1.64-1.1,2.44-.33.83-.7,1.64-1.1,2.44-.33.83-.7,1.64-1.1,2.44-.33.83-.7,1.64-1.1,2.44-.33.83-.7,1.64-1.1,2.44-.33.83-.7,1.64-1.1,2.44-.33.83-.7,1.64-1.1,2.44-.33.83-.7,1.64-1.1,2.44-.33.83-.7,1.64-1.1,2.44-.33.83-.7,1.64-1.1,2.44-.33.83-.7,1.64-1.1,2.44-.33.83-.7,1.64-1.11,2.44-.33.83-.7,1.64-1.1,2.44-.33.83-.7,1.64-1.1,2.44-.33.83-.7,1.64-1.1,2.44-.33.83-.7,1.64-1.11,2.44-.33.83-.7,1.64-1.1,2.44-.33.83-.7,1.64-1.1,2.44-.33.83-.7,1.64-1.1,2.44-.33.83-.7,1.64-1.1,2.44-.33.83-.7,1.64-1.1,2.44-.33.83-.7,1.64-1.1,2.44-.33.83-.7,1.64-1.1,2.44-.33.83-.7,1.64-1.1,2.44-.33.83-.7,1.64-1.1,2.44-.33.83-.7,1.64-1.1,2.44-.33.83-.7,1.64-1.1,2.44-.33.83-.7,1.64-1.1,2.44-.33.83-.7,1.64-1.1,2.44-.33.83-.7,1.64-1.1,2.44-.33.83-.7,1.64-1.1,2.44-.33.83-.7,1.64-1.1,2.44-.33.83-.7,1.64-1.1,2.44-.33.83-.7,1.64-1.1,2.44-.33.83-.7,1.64-1.1,2.44-.33.83-.7,1.64-1.11,2.44-.33.83-.7,1.64-1.1,2.44-.33.83-.7,1.64-1.1,2.44-.33.83-.7,1.64-1.1,2.44-.33.83-.7,1.64-1.1,2.44-.33.83-.7,1.64-1.1,2.44-.33.83-.7,1.64-1.1,2.44-.33.83-.7,1.64-1.1,2.44-.33.83-.7,1.64-1.1,2.44-.33.83-.7,1.64-1.11,2.44-.33.83-.7,1.64-1.1,2.43-.33.83-.7,1.64-1.11,2.44-.33.83-.7,1.64-1.1,2.44-.33.83-.7,1.64-1.1,2.44-.33.83-.7,1.64-1.1,2.44-.33.83-.7,1.64-1.1,2.44-.33.83-.7,1.64-1.11,2.44-.33.83-.7,1.64-1.1,2.44-.33.83-.7,1.64-1.1,2.44-.33.83-.7,1.64-1.1,2.44-.33.83-.7,1.64-1.1,2.44-.33.83-.7,1.64-1.1,2.44-.33.83-.7,1.64-1.1,2.44-.33.83-.7,1.64-1.1,2.44-.33.83-.7,1.64-1.1,2.44-.33.83-.7,1.64-1.1,2.44-.33.83-.7,1.64-1.1,2.44-.33.83-.7,1.64-1.1,2.44-.33.83-.7,1.64-1.1,2.44-.33.83-.7,1.64-1.1,2.44-.33.83-.7,1.64-1.1,2.44-.33.83-.7,1.64-1.1,2.44-.33.83-.7,1.64-1.1,2.44-.33.83-.7,1.64-1.11,2.44-.33.83-.7,1.64-1.1,2.44-.33.83-.7,1.64-1.1,2.44-.33.83-.7,1.64-1.1,2.44-.33.83-.7,1.64-1.1,2.44-.33.83-.7,1.64-1.1,2.44-.33.83-.7,1.64-1.1,2.44-.33.83-.7,1.64-1.1,2.44-.33.83-.7,1.64-1.1,2.44-.33.83-.7,1.64-1.1,2.44-.33.83-.7,1.64-1.1,2.44-.33.83-.7,1.64-1.1,2.44-.33.83-.7,1.64-1.1,2.44-.33.83-.7,1.64-1.1,2.44-.33.83-.7,1.64-1.1,2.44-.33.83-.7,1.64-1.11,2.44-1.62,1.54-9.32-.23-11.1,1.6-.07,2.44,6.73,5.95,6.69,8.14-.33.83-.7,1.64-1.1,2.44-.33.83-.7,1.64-1.1,2.44-.33.83-.7,1.64-1.1,2.44-.33.83-.7,1.64-1.11,2.44-.33.83-.7,1.64-1.1,2.44-.33.83-.7,1.64-1.1,2.44-.33.83-.7,1.64-1.1,2.44-.33.83-.7,1.64-1.1,2.44-.33.83-.7,1.64-1.1,2.44-.33.83-.69,1.64-1.1,2.44-.33.83-.7,1.64-1.1,2.44-.33.83-.7,1.64-1.11,2.44-.33.83-.69,1.64-1.1,2.44-.33.83-.7,1.64-1.1,2.44-.33.83-.69,1.64-1.1,2.44-.33.83-.69,1.64-1.1,2.44-.33.83-.69,1.64-1.1,2.44-.33.83-.69,1.64-1.1,2.44-.33.83-.69,1.64-1.11,2.44-.33.83-.69,1.64-1.1,2.44-.33.83-.69,1.64-1.1,2.44-.33.83-.69,1.64-1.1,2.44-.26.67-.56,1.33-.88,1.98-.03.09-.06.17-.09.26-.05.15-.1.31-.15.46-.05.15-.1.31-.15.46-.05.15-.1.31-.15.46-.05.15-.1.31-.15.46-.05.15-.1.31-.15.46-.05.15-.1.31-.15.46-.05.15-.1.31-.15.46-.05.15-.1.31-.15.46-.15.46-.29.92-.44,1.38-.05.15-.1.31-.15.46-.05.15-.1.31-.15.46-.05.15-.1.31-.15.46-.05.15-.1.31-.15.46-.05.15-.1.31-.15.46-.05.15-.1.31-.15.46-.1.31-.2.62-.3.92-.05.15-.1.31-.15.46-.05.15-.1.31-.15.46-.15.46-.29.92-.45,1.39-.05.15-.1.31-.15.46-.05.15-.1.31-.15.46-.1.31-.2.62-.3.92-.05.15-.1.31-.15.46-.05.15-.1.31-.15.46-.1.31-.2.62-.3.92-.05.15-.1.31-.15.46-.05.15-.1.31-.15.46-.05.15-.1.31-.15.46-.15.46-.29.92-.44,1.38-.15.46-.29.92-.45,1.39-.1.31-.2.62-.3.92-.05.15-.1.31-.15.46-.05.15-.1.31-.15.46-.05.15-.1.31-.15.46-.25.77-.49,1.54-.74,2.31-.1.31-.2.62-.3.92-.25.77-.49,1.54-.74,2.31-.05.15-.1.31-.15.46-.05.15-.1.31-.15.46-.1.31-.2.62-.3.92-.3.92-.59,1.85-.89,2.77-.39,1.23-.79,2.46-1.19,3.7-.1.31-.2.62-.3.92-.05.15-.1.31-.15.46-.1.31-.2.62-.3.93-.15.46-.29.92-.44,1.38-.1.31-.2.62-.3.92-.05.15-.1.31-.15.46-.3.92-.59,1.85-.89,2.77-.25.77-.49,1.54-.74,2.31-.1.31-.2.62-.3.92-.44,1.39-.89,2.77-1.33,4.16-.05.15-.1.31-.15.46-.35,1.08-.69,2.16-1.04,3.23-.05.15-.1.31-.15.46-.15.46-.29.92-.45,1.39-.2.62-.39,1.23-.59,1.85-.15.46-.29.92-.45,1.39-.59,1.85-1.18,3.69-1.78,5.54-.05.15-.1.31-.15.46-.2.62-.39,1.23-.59,1.85-.1.31-.2.62-.3.92-1.33,4.16-2.67,8.31-4,12.47-.94,2.93-1.88,5.85-2.82,8.78-6.78,27.3-43.48,33.6-58.58,9.43-5.94-9.51-6.29-20.92-1.96-30.41Z"/></g><path class="cls-7" d="M876.9,60.2c10.51,16.82,32.67,21.94,49.49,11.43,39.4-26.85,3.33-84.56-38.06-60.92-16.82,10.51-21.94,32.67-11.43,49.49Z"/><path class="cls-12" d="M876.55,56.1c10.51,16.82,32.67,21.94,49.49,11.43,39.4-26.85,3.33-84.56-38.06-60.92-16.82,10.51-21.94,32.67-11.43,49.49Z"/><path class="cls-7" d="M885.65,50.42c7.89,12.63,24.53,16.47,37.16,8.58,29.59-20.16,2.5-63.49-28.58-45.74-12.63,7.89-16.47,24.53-8.58,37.16Z"/><path class="cls-3" d="M893.62,43.33c5.34,8.54,16.59,11.14,25.14,5.81,20.04-13.5,1.58-43.03-19.33-30.94-8.54,5.34-11.14,16.59-5.8,25.14Z"/><path class="cls-7" d="M901.92,36.04c6.63,10.04,21.59.69,15.47-9.67-6.63-10.04-21.59-.69-15.47,9.67Z"/><path class="cls-7" d="M671.35,569.02c59.39-160.24,129.15-318.39,198.5-475.62,2.05-4.67,4.26-10.04,6.74-10.8,3.38-1.03.77,5.29-1.5,10.67-54.19,128.28-107.5,257.08-160.91,385.53-11.42,27.57-25.29,55.85-32.66,82.68-4.48,8.97-8.97,17.94-13.45,26.9-2.56-2.76.1-10.92,3.27-19.36Z"/><path class="cls-12" d="M876,26.59c-.37.82-.68,1.65-.99,2.49-.37.82-.68,1.65-.99,2.49-.37.82-.68,1.65-.99,2.49-.37.82-.68,1.65-.99,2.49-.37.81-.68,1.65-.99,2.49-.37.82-.68,1.65-.99,2.49-.37.81-.68,1.65-.99,2.49-.37.82-.68,1.65-.99,2.49-.37.82-.68,1.65-.99,2.49-.37.82-.68,1.65-.99,2.49-.37.82-.68,1.65-.99,2.49-.37.82-.68,1.65-.99,2.49-.37.82-.68,1.65-.99,2.49-.37.82-.68,1.65-.99,2.49-.37.82-.68,1.65-.99,2.49-.37.82-.68,1.65-.99,2.49-.37.82-.68,1.65-.99,2.49-.37.82-.68,1.65-.99,2.49-.37.82-.68,1.65-.99,2.49-.37.82-.68,1.65-.99,2.49-.37.81-.68,1.65-.99,2.49-.37.82-.68,1.65-.99,2.49-.37.81-.68,1.65-.99,2.49-.37.82-.68,1.65-.99,2.49-.37.82-.68,1.65-.99,2.49-.37.81-.68,1.65-.99,2.49-.37.81-.68,1.65-.99,2.49-.37.82-.68,1.65-.99,2.49-.37.81-.68,1.65-.99,2.49-.37.81-.68,1.65-.99,2.49-.37.82-.68,1.65-.99,2.49-.37.81-.68,1.65-.99,2.49-.37.82-.68,1.65-.99,2.49-.37.82-.68,1.65-.99,2.49-.37.81-.68,1.65-.99,2.49-.37.81-.68,1.65-.99,2.49-.37.82-.68,1.65-.99,2.49-.37.82-.68,1.65-.99,2.49-.37.81-.68,1.65-.99,2.49-.37.82-.68,1.65-.99,2.49-.37.81-.68,1.65-.99,2.49-.37.81-.68,1.65-.99,2.49-.37.82-.68,1.65-.99,2.49-.37.81-.68,1.65-.99,2.49-.37.82-.68,1.65-.99,2.49-.37.81-.68,1.65-.99,2.49-.37.82-.68,1.65-.99,2.49-.37.81-.68,1.65-.99,2.49-.37.81-.68,1.65-.99,2.49-.37.82-.68,1.65-.99,2.49-.37.82-.68,1.65-.99,2.49-.37.81-.68,1.65-.99,2.49-.37.82-.68,1.65-.99,2.49-.37.82-.68,1.65-.99,2.49-.37.81-.68,1.65-.99,2.49-.37.82-.69,1.65-.99,2.49-.37.82-.68,1.65-.99,2.49-.37.82-.69,1.65-.99,2.49-.37.82-.68,1.65-.99,2.49-.37.81-.68,1.65-.99,2.49-.37.81-.68,1.65-.99,2.49-.37.82-.69,1.65-.99,2.49-.37.81-.68,1.65-.99,2.49-.37.81-.69,1.65-.99,2.49-.37.82-.69,1.65-.99,2.49-.37.82-.69,1.65-.99,2.49-.37.81-.69,1.65-.99,2.49-.37.82-.69,1.65-.99,2.49-.37.82-.69,1.65-.99,2.49-.37.82-.69,1.65-.99,2.49-.37.82-.69,1.65-.99,2.49-.37.82-.69,1.65-.99,2.49-.37.81-.69,1.65-.99,2.49-.37.81-.69,1.65-.99,2.49-.37.82-.69,1.65-.99,2.49-.37.82-.69,1.65-.99,2.49-.37.81-.69,1.65-.99,2.49-.37.82-.69,1.65-.99,2.49-.37.82-.69,1.65-.99,2.49-.37.81-.69,1.65-.99,2.49-.37.81-.69,1.65-.99,2.49-.37.82-.69,1.65-.99,2.49-.37.82-.69,1.65-.99,2.49-.37.81-.69,1.65-.99,2.49-.37.82-.69,1.65-.99,2.49-.37.82-.69,1.65-.99,2.49-.37.81-.69,1.65-.99,2.49-.37.81-.69,1.65-.99,2.49-.37.82-.69,1.65-.99,2.49-.37.81-.69,1.65-.99,2.49-.37.81-.69,1.65-.99,2.49-.37.82-.69,1.65-.99,2.49-.37.81-.69,1.65-.99,2.49-.37.81-.69,1.65-.99,2.49-.37.82-.69,1.65-.99,2.49-.37.81-.69,1.65-.99,2.49-.37.82-.69,1.65-.99,2.49-.37.81-.69,1.65-.99,2.49-.37.81-.69,1.65-.99,2.49-.37.82-.69,1.65-.99,2.49-.37.81-.69,1.65-.99,2.49-.37.81-.69,1.65-.99,2.49-.37.81-.69,1.65-.99,2.49-.37.82-.69,1.65-.99,2.49-.37.81-.69,1.65-.99,2.49-.37.81-.69,1.65-.99,2.49-.37.81-.69,1.65-.99,2.49-.37.81-.69,1.65-.99,2.49-.37.81-.69,1.65-.99,2.49-.37.81-.69,1.65-.99,2.49-.37.81-.69,1.65-.99,2.49-.37.81-.69,1.65-.99,2.49-.37.81-.69,1.65-.99,2.49-.37.82-.69,1.65-.99,2.49-.37.81-.69,1.65-.99,2.49-.37.81-.69,1.65-.99,2.49-.37.81-.69,1.65-.99,2.49-.37.81-.69,1.65-.99,2.49-.37.81-.69,1.65-.99,2.49-.37.81-.69,1.65-.99,2.49-.37.81-.69,1.65-.99,2.49-.37.81-.69,1.65-.99,2.49-.37.82-.69,1.65-.99,2.49-.37.81-.69,1.65-.99,2.49-.37.81-.69,1.65-.99,2.49-.37.81-.69,1.65-.99,2.49-.37.81-.69,1.65-.99,2.49-.37.81-.69,1.65-.99,2.49-.37.81-.69,1.65-.99,2.49-.37.81-.69,1.65-.99,2.49-.37.81-.69,1.65-.99,2.49-.37.82-.69,1.65-.99,2.49-.37.81-.69,1.65-.99,2.49-.37.81-.69,1.65-.99,2.49-.37.82-.69,1.65-.99,2.49-.37.82-.69,1.65-.99,2.49-.37.81-.69,1.65-.99,2.49-.37.82-.69,1.65-.99,2.49-.37.81-.69,1.65-.99,2.49-.37.82-.69,1.65-.99,2.49-.37.81-.69,1.65-.99,2.49-.37.82-.7,1.65-.99,2.49-.37.81-.69,1.65-.99,2.49-.37.81-.69,1.65-.99,2.49-.37.81-.69,1.65-.99,2.49-.37.82-.7,1.65-.99,2.49-.37.81-.7,1.65-.99,2.49-.37.81-.7,1.65-.99,2.49-.37.82-.7,1.65-.99,2.49-.37.81-.7,1.64-.99,2.49-.37.81-.7,1.65-.99,2.49-.37.81-.7,1.65-.99,2.49-.37.82-.7,1.65-.99,2.49-.37.81-.7,1.65-.99,2.49-.37.81-.7,1.65-.99,2.49-.37.81-.7,1.65-.99,2.49-.37.82-.7,1.65-.99,2.49-.37.81-.7,1.65-.99,2.49-.37.81-.7,1.64-.99,2.49-.37.82-.7,1.65-.99,2.49-.37.81-.7,1.64-.99,2.49-.37.81-.7,1.65-.99,2.49-.37.81-.7,1.64-.99,2.49-.37.82-.7,1.65-.99,2.49-.37.81-.7,1.64-.99,2.49-.37.81-.7,1.64-.99,2.49-.37.81-.7,1.65-.99,2.49-.37.81-.7,1.64-.99,2.49-.37.81-.7,1.64-.99,2.49-.37.81-.7,1.65-.99,2.49-.37.81-.7,1.64-.99,2.49-.37.81-.7,1.64-.99,2.49-.37.81-.7,1.64-.99,2.49-.37.81-.7,1.64-.99,2.49-.37.81-.7,1.64-.99,2.49-.37.81-.7,1.64-.99,2.49-.37.81-.7,1.64-.99,2.49-.37.81-.7,1.64-.99,2.49-.37.81-.7,1.64-.99,2.49-.37.81-.7,1.64-.99,2.49-.37.81-.7,1.64-.99,2.49-.37.81-.7,1.64-.99,2.49-.37.81-.7,1.64-.99,2.49-.37.81-.7,1.64-.99,2.49-.37.81-.7,1.64-.99,2.49-.37.81-.7,1.64-.99,2.49-.37.81-.7,1.64-.99,2.49-.37.81-.7,1.64-.99,2.49-.37.81-.7,1.64-.99,2.49-.37.81-.7,1.64-.99,2.49-.37.81-.7,1.64-.99,2.49-.37.81-.7,1.64-.99,2.49-.37.81-.7,1.64-.99,2.49-.37.81-.7,1.64-.99,2.49-.37.81-.7,1.64-.99,2.49-.37.82-.71,1.64-.99,2.49-.37.81-.7,1.64-.99,2.49-.37.81-.7,1.64-.99,2.49-.37.81-.7,1.64-.99,2.49-.37.81-.7,1.64-.99,2.49-.19.42-.39.83-.58,1.25-.07.15-.14.29-.2.44-.07.15-.14.29-.2.44-.2.44-.41.88-.61,1.32-.14.29-.27.59-.41.88-.07.15-.14.29-.2.44-.2.44-.41.88-.61,1.32-.07.15-.14.29-.2.44-.07.15-.14.29-.2.44-.07.15-.14.29-.2.44-.07.15-.14.29-.2.44-.07.15-.14.29-.2.44-.21.44-.41.88-.61,1.32-.2.44-.41.88-.61,1.32-.14.29-.27.59-.41.88-.2.44-.41.88-.61,1.32-.07.15-.14.29-.2.44-.27.59-.54,1.17-.81,1.76-.14.29-.27.59-.41.88-.07.15-.14.29-.2.44-.14.29-.27.59-.41.88-.07.15-.14.29-.2.44-.07.15-.14.29-.2.44-.07.15-.14.29-.2.44-.2.44-.41.88-.61,1.32-.07.15-.14.29-.2.44-.2.44-.41.88-.61,1.32-.07.15-.14.29-.2.44-.07.15-.14.29-.2.44-.07.15-.14.29-.2.44-.07.15-.14.29-.2.44-.07.15-.14.29-.2.44-.07.15-.14.29-.2.44-.07.15-.14.29-.2.44-.2.44-.41.88-.61,1.32-.07.15-.14.29-.2.44-.27.59-.54,1.17-.81,1.76-.27.59-.55,1.17-.82,1.76-.21.44-.41.88-.61,1.32-.07.15-.14.29-.2.44-.2.44-.41.88-.61,1.32-.21.44-.41.88-.61,1.32-.07.15-.14.29-.2.44-.2.44-.41.88-.61,1.32-.07.15-.14.29-.2.44-.07.15-.14.29-.2.44-.14.29-.27.59-.41.88-.14.29-.27.59-.41.88-.14.29-.27.59-.41.88-.2.44-.41.88-.61,1.32-.27.59-.55,1.17-.82,1.76-.27.59-.54,1.17-.82,1.76-.48,1.03-.95,2.05-1.43,3.08-.14.29-.27.59-.41.88-.48,1.03-.95,2.05-1.43,3.08-.14.29-.27.59-.41.88-.14.29-.27.59-.41.88-.2.44-.41.88-.61,1.32-.14.29-.27.59-.41.88-.41.88-.82,1.76-1.22,2.64-.2.44-.41.88-.61,1.32-.88,1.91-1.77,3.82-2.65,5.73-.27.59-.55,1.17-.82,1.76-.2.44-.41.88-.61,1.32-.07.15-.14.29-.2.44-.41.88-.82,1.76-1.22,2.64-.34.73-.68,1.47-1.02,2.2-.07.15-.14.29-.2.44-.54,1.17-1.09,2.35-1.63,3.52-.48,1.03-.95,2.05-1.43,3.08-.27.59-.55,1.17-.82,1.76-.34.73-.68,1.47-1.02,2.2-9.28,15.79-3.74,37.62,13.4,45.73-21.76-7.31-28.13-30.85-16.91-49.77,1.63-3.52,3.26-7.05,4.89-10.57.34-.73.68-1.47,1.02-2.2.41-.88.81-1.76,1.22-2.64.47-1.03.95-2.06,1.43-3.08.41-.88.81-1.76,1.22-2.64.27-.59.54-1.17.82-1.76.47-1.03.95-2.06,1.43-3.08.34-.74.68-1.47,1.02-2.2.13-.29.27-.59.41-.88.27-.59.54-1.18.82-1.76.2-.44.41-.88.61-1.32.27-.59.54-1.18.82-1.76.13-.29.27-.59.41-.88.2-.44.41-.88.61-1.32.41-.88.81-1.76,1.22-2.64.41-.88.81-1.76,1.22-2.64.34-.74.68-1.47,1.02-2.2.13-.29.27-.59.41-.88.06-.15.14-.29.2-.44.2-.44.41-.88.61-1.32.27-.59.54-1.18.82-1.76.41-.88.81-1.76,1.22-2.64.06-.15.14-.29.2-.44.2-.44.41-.88.61-1.32.06-.15.14-.29.2-.44.2-.44.41-.88.61-1.32.06-.15.14-.29.2-.44.2-.44.41-.88.61-1.32.27-.59.54-1.18.82-1.76.06-.15.14-.29.2-.44.06-.15.14-.29.2-.44.06-.15.14-.29.2-.44.27-.59.54-1.17.81-1.76.06-.15.14-.29.2-.44.13-.3.27-.59.41-.88.06-.15.14-.29.2-.44.07-.15.14-.29.2-.44.13-.29.27-.59.41-.88.06-.15.14-.29.2-.44.06-.15.14-.29.2-.44.06-.15.14-.29.2-.44.34-.74.68-1.47,1.02-2.2.06-.15.14-.29.2-.44.06-.15.14-.29.2-.44.13-.29.27-.59.41-.88.06-.15.14-.29.2-.44.13-.29.27-.59.41-.88.06-.15.14-.29.2-.44.06-.15.14-.29.2-.44.06-.15.14-.29.2-.44.2-.44.41-.88.61-1.32.13-.29.27-.59.41-.88.06-.15.14-.29.2-.44.06-.15.14-.29.2-.44.06-.15.14-.29.2-.44.13-.29.27-.59.41-.88.06-.15.14-.29.2-.44.06-.15.14-.29.2-.44.06-.15.14-.29.2-.44.06-.15.14-.29.2-.44.06-.15.14-.29.2-.44.06-.15.14-.29.2-.44.27-.59.54-1.18.82-1.76.06-.15.14-.29.2-.44.06-.15.14-.29.2-.44.06-.15.14-.29.2-.44.12-.27.25-.54.37-.81.29-.85.62-1.67.99-2.49.29-.85.62-1.67.99-2.49.29-.85.62-1.67.99-2.49.29-.84.62-1.67.99-2.49.29-.85.62-1.68.99-2.49.29-.84.62-1.67.99-2.49.29-.84.62-1.67.99-2.49.29-.85.62-1.67.99-2.49.29-.85.62-1.67.99-2.49.29-.84.62-1.67.99-2.49.29-.84.62-1.67.99-2.49.29-.84.62-1.67.99-2.49.29-.84.62-1.67.99-2.49.29-.84.62-1.67.99-2.49.29-.84.62-1.67.99-2.49.29-.84.62-1.67.99-2.49.29-.84.62-1.67.99-2.49.29-.84.62-1.67.99-2.49.29-.84.62-1.67.99-2.49.29-.84.62-1.67.99-2.49.29-.84.62-1.67.99-2.49.29-.84.62-1.67.99-2.49.29-.84.62-1.67.99-2.49.29-.84.62-1.67.99-2.49.29-.84.62-1.67.99-2.49.29-.84.62-1.67.99-2.49.29-.84.62-1.67.99-2.49.29-.84.62-1.67.99-2.49.29-.84.62-1.67.99-2.49.29-.84.62-1.67.99-2.49.29-.84.62-1.67.99-2.49.29-.84.62-1.67.99-2.49.29-.84.62-1.67.99-2.49.29-.84.62-1.67.99-2.49.29-.84.62-1.67.99-2.49.29-.84.62-1.67.99-2.49.29-.84.62-1.67.99-2.49.29-.84.62-1.67.99-2.49.29-.84.62-1.67.99-2.49.29-.84.62-1.67.99-2.49.29-.84.62-1.68.99-2.49.29-.84.62-1.67.99-2.49.29-.84.62-1.67.99-2.49.29-.84.62-1.67.99-2.49.29-.84.62-1.67.99-2.49.29-.84.62-1.67.99-2.49.29-.84.62-1.67.99-2.49.29-.84.62-1.67.99-2.49.29-.84.62-1.67.99-2.49.29-.84.62-1.67.99-2.49.29-.84.62-1.67.99-2.49.29-.84.62-1.67.99-2.49.29-.84.62-1.67.99-2.49.29-.84.62-1.67.99-2.49.29-.84.62-1.67.99-2.49.29-.84.62-1.67.99-2.49.29-.84.62-1.67.99-2.49.29-.84.62-1.67.99-2.49.29-.84.62-1.67.99-2.49.29-.84.62-1.67.99-2.49.29-.84.62-1.67.99-2.49.29-.84.62-1.67.99-2.49.3-.84.62-1.67.99-2.49.3-.84.62-1.67.99-2.49.3-.84.62-1.67.99-2.49.3-.84.62-1.67.99-2.49.3-.84.62-1.67.99-2.49.3-.84.62-1.67.99-2.49.3-.84.62-1.68.99-2.49.3-.84.62-1.67.99-2.49.3-.84.62-1.67.99-2.49.3-.84.62-1.68.99-2.49.3-.84.62-1.67.99-2.49.3-.84.62-1.67.99-2.49.3-.84.62-1.67.99-2.49.3-.84.62-1.67.99-2.49.3-.84.62-1.67.99-2.49.3-.84.62-1.67.99-2.49.3-.84.62-1.67.99-2.49.3-.84.62-1.67.99-2.49.3-.84.62-1.67.99-2.49.3-.84.62-1.67.99-2.49.3-.84.62-1.67.99-2.49.3-.84.62-1.67.99-2.49.3-.84.62-1.67.99-2.49.3-.84.62-1.67.99-2.49.3-.84.62-1.67.99-2.49.3-.84.62-1.67.99-2.49.3-.84.62-1.67.99-2.49.3-.84.62-1.67.99-2.49.3-.84.62-1.67.99-2.49.3-.84.62-1.67.99-2.49.3-.84.62-1.67.99-2.49.3-.84.62-1.67.99-2.49.3-.84.62-1.67.99-2.49.3-.84.62-1.67.99-2.49.3-.84.62-1.67.99-2.49.3-.84.62-1.67.99-2.49.3-.84.62-1.67.99-2.49.3-.84.62-1.67.99-2.49.3-.84.62-1.67.99-2.49.3-.84.62-1.67.99-2.49.3-.84.62-1.67.99-2.49.3-.84.62-1.67.99-2.49.3-.84.62-1.67.99-2.49.3-.84.62-1.67.99-2.49.3-.84.62-1.67.99-2.49.3-.84.62-1.67.99-2.49.3-.84.62-1.67.99-2.49.3-.84.62-1.67.99-2.49.3-.84.62-1.67.99-2.49.3-.84.62-1.67.99-2.49.3-.84.62-1.67.99-2.49.3-.84.62-1.67.99-2.49.3-.84.62-1.67.99-2.49.3-.84.62-1.67.99-2.49.3-.84.62-1.67.99-2.49.3-.84.62-1.67.99-2.49.3-.84.62-1.67.99-2.49.3-.84.62-1.67.99-2.49.3-.84.62-1.67.99-2.49.3-.84.62-1.67.99-2.49.3-.84.62-1.67.99-2.49.3-.84.62-1.67.99-2.49.3-.84.62-1.67.99-2.49.3-.84.62-1.67.99-2.49.3-.84.62-1.67.99-2.49.3-.84.62-1.67.99-2.49.3-.84.62-1.67.99-2.49.3-.84.62-1.67.99-2.49.3-.84.62-1.67.99-2.49.3-.84.62-1.67.99-2.49.3-.84.62-1.67.99-2.49.3-.84.62-1.67.99-2.49.3-.84.62-1.67.99-2.49.3-.84.62-1.67.99-2.49.3-.84.62-1.67.99-2.49.3-.84.62-1.67.99-2.49.3-.84.62-1.67.99-2.49.3-.84.62-1.67.99-2.49.3-.84.62-1.67.99-2.49.3-.84.62-1.67.99-2.49.3-.84.62-1.67.99-2.49.3-.84.62-1.67.99-2.49.31-.84.62-1.67.99-2.49.3-.84.62-1.67.99-2.49.31-.84.62-1.67.99-2.49.31-.84.62-1.67.99-2.49.3-.84.62-1.67.99-2.49.31-.84.62-1.67.99-2.49.31-.84.62-1.67.99-2.49.31-.84.62-1.67.99-2.49.31-.84.62-1.67.99-2.49.31-.84.62-1.67.99-2.49.31-.84.62-1.67.99-2.49.31-.84.62-1.67.99-2.49.31-.84.62-1.67.99-2.49.31-.84.62-1.67.99-2.49.31-.84.62-1.67.99-2.49.31-.84.62-1.67.99-2.49.31-.84.62-1.67.99-2.49.31-.84.62-1.67.99-2.49.31-.84.62-1.67.99-2.49.31-.84.62-1.67.99-2.49.31-.84.62-1.67.99-2.49.31-.84.62-1.67.99-2.49.31-.84.62-1.67.99-2.49.31-.84.62-1.67.99-2.49.31-.84.62-1.67.99-2.49.31-.84.62-1.67.99-2.49.31-.84.62-1.67.99-2.49.31-.84.62-1.67.99-2.49.31-.84.62-1.67.99-2.49.31-.84.62-1.67.99-2.49.31-.84.62-1.67.99-2.49.31-.84.62-1.67.99-2.49.31-.84.62-1.67.99-2.49.31-.84.62-1.67.99-2.49.31-.84.62-1.67.99-2.49.31-.84.62-1.67.99-2.49.31-.84.62-1.67.99-2.49.31-.84.62-1.67.99-2.49.31-.84.62-1.67.99-2.49.31-.84.62-1.67.99-2.49.31-.84.62-1.67.99-2.49.31-.84.62-1.67.99-2.49.31-.84.62-1.67.99-2.49.31-.84.62-1.67.99-2.49.31-.84.62-1.67.99-2.49.31-.84.62-1.67.99-2.49.31-.84.62-1.67.99-2.49.31-.84.62-1.67.99-2.49.31-.84.62-1.67.99-2.49.31-.84.62-1.67.99-2.49.31-.84.62-1.67.99-2.49.31-.84.62-1.67.99-2.49.31-.84.62-1.67.99-2.49.31-.84.62-1.67.99-2.49.31-.84.62-1.67.99-2.49.31-.84.62-1.67.99-2.49,2.87-7.75,8.96-13.42,16.5-18.14"/><path class="cls-14" d="M690.51,569.06c-1.62,18.94-18.29,32.98-37.23,31.36-45.34-5.7-39.76-70.68,5.87-68.59,18.94,1.62,32.98,18.29,31.36,37.23Z"/><rect class="cls-9" x="321.75" y="1005.89" width="87.03" height="73" rx="30.31" ry="30.31" transform="translate(-87.34 34.85) rotate(-4.88)"/><rect class="cls-9" x="422.66" y="997.28" width="87.03" height="73" rx="30.31" ry="30.31" transform="translate(-86.24 43.4) rotate(-4.88)"/><path class="cls-9" d="M594.93,799.63l-20.88,31.61,15.21,10.05,64.25-29.93c-17.47-1.02-41.95-4.48-58.58-11.73Z"/><path class="cls-9" d="M750.29,881.24c-17.44-11-31.59-25.84-41.81-42.34l-73.74,32.24c35.13,21.15,75.69,26.44,113.03,17.64.74-2.37,1.67-4.71,2.8-6.98-.1-.18-.18-.37-.28-.56Z"/><path class="cls-9" d="M710.57,694.42c33.67-50.98,96.19-71.43,151.73-54.1.72-1.33,1.49-2.63,2.34-3.92.67.44,1.32.9,1.96,1.36,0-.03-.01-.06-.02-.09h0c.18-.04.36-.06.54-.1,7.05-6.79,15.71-11.33,24.92-13.41-69.91-45.79-163.75-26.47-209.85,43.33l-41.54,62.89c18.11-7.44,37.53-11.33,57.12-11.44,3.35-8.44,7.6-16.67,12.8-24.54Z"/><path class="cls-9" d="M571.8,787.11h0c7.46,4.93,15.21,9.06,23.13,12.52l45.72-69.23c-27.19,11.17-51.43,30.33-68.85,56.71Z"/><path class="cls-9" d="M653.91,816.11l44.18-19.32c-4.49-24.3-9.78-53.99-.32-77.83-19.59.11-39.01,4-57.12,11.44l-45.72,69.23c16.63,7.25,41.51,15.46,58.99,16.48Z"/><path class="cls-17" d="M918.18,705.8l-24.85,37.63c28.03-5.58,49.53,26.12,33.51,50.21-15.87,24.19-53.46,16.86-59.33-11.11l-15.72,23.8,45.06,29.76c10.11,6.68,16.9,16.57,19.93,27.46,39.6-38.21,50.21-100.69,28.71-148.37-9.58-1.78-18.77-4.96-27.3-9.37Z"/><path class="cls-7" d="M734.95,799.9c-5.57-12.34-20.1-17.82-32.43-12.25l-139.56,63.05,4.42,51.81,155.33-70.17c12.34-5.58,17.82-20.1,12.25-32.44Z"/><path class="cls-17" d="M752.92,832.33l11.94-18.08-56.38,24.65c10.22,16.5,24.37,31.34,41.81,42.34-7.7-15.1-7.33-33.83,2.63-48.91Z"/><path class="cls-17" d="M879.58,709.45h0c-23.02-15.2-30.22-45.35-17.28-69.14-64-21.1-139.64,13.35-164.53,78.64,29-.16,58.37,7.95,84.38,25.14h0c-5.61,8.49-11.94,16.22-18.83,23.19,11.95,3.07,20.31,17.31,16.98,29.35,15.89-11.38,37.88-12.51,55.1-1.14l16.38,10.82,15.72-23.8c-4.29-17.15,8.37-36.31,25.82-39.1l24.85-37.63c-11.36-5.87-21.54-13.9-29.91-23.67-.3,9.42-3.13,18.88-8.7,27.32ZM816.79,720.96c-9.97,15.09-30.29,19.25-45.38,9.28-35.32-25.4-1.09-77.18,36.11-54.67,15.09,9.97,19.25,30.29,9.27,45.39Z"/><path class="cls-17" d="M763.32,767.29c6.89-6.97,13.22-14.7,18.83-23.19h0c-26.02-17.18-55.38-25.3-84.38-25.14-9.46,23.84-11.62,49.38-7.13,73.68l55.66-24.34c5.59-2.45,11.6-2.65,17.02-1.02Z"/><path class="cls-17" d="M768.15,809.26c3.34-5.06,7.49-9.27,12.15-12.61,3.33-12.05-5.03-26.28-16.98-29.35-19.43,19.65-43.45,33.15-69.17,39.92,3.35,11.08,8.16,21.73,14.32,31.69l56.38-24.65,3.29-4.99Z"/><path class="cls-17" d="M763.32,767.29c-5.42-1.63-11.43-1.43-17.02,1.02l-55.66,24.34c.91,4.91,2.06,9.78,3.51,14.57,25.72-6.77,49.74-20.27,69.17-39.92Z"/><path class="cls-13" d="M807.51,675.57c-15.1-9.97-35.42-5.82-45.4,9.28-22.5,37.2,29.29,71.41,54.67,36.11,9.97-15.1,5.82-35.42-9.28-45.39ZM808.78,706.85l-10.18,2.08,2.08,10.18c.86,4.19-1.85,8.28-6.04,9.14-4.19.86-8.28-1.85-9.14-6.04l-2.08-10.18-10.18,2.08c-4.19.86-8.28-1.85-9.14-6.04-.86-4.19,1.85-8.28,6.04-9.14l10.18-2.08-2.08-10.18c-.86-4.19,1.85-8.28,6.04-9.14,4.19-.86,8.28,1.85,9.14,6.04l2.08,10.18,10.18-2.08c10.06-1.79,13.06,12.88,3.1,15.18Z"/><path class="cls-9" d="M770.13,698.95c-9.96,2.3-6.95,16.97,3.1,15.17,0,0,10.18-2.08,10.18-2.08l-3.1-15.17-10.18,2.08Z"/><path class="cls-9" d="M805.68,691.68l-10.18,2.08,3.1,15.17,10.18-2.08c9.96-2.3,6.95-16.97-3.1-15.18Z"/><path class="cls-9" d="M793.41,683.58c-2.3-9.96-16.97-6.95-15.18,3.1,0,0,2.08,10.18,2.08,10.18l15.17-3.1-2.08-10.18Z"/><path class="cls-9" d="M785.5,722.22c2.3,9.96,16.97,6.95,15.17-3.1,0,0-2.08-10.18-2.08-10.18l-15.17,3.1,2.08,10.18Z"/><rect class="cls-9" x="781.71" y="695.16" width="15.49" height="15.49" transform="translate(-124.81 172.39) rotate(-11.56)"/><path class="cls-13" d="M881.46,802.92c15.09,9.97,35.42,5.81,45.38-9.28,16.03-24.1-5.48-55.8-33.51-50.21l-25.82,39.1c1.75,8.07,6.52,15.49,13.95,20.39ZM880.18,771.63l10.18-2.08-2.08-10.18c-.86-4.19,1.85-8.28,6.04-9.14,4.19-.86,8.28,1.85,9.14,6.04l2.08,10.18,10.18-2.08c4.19-.86,8.28,1.85,9.14,6.04.86,4.19-1.85,8.28-6.04,9.14l-10.18,2.08,2.08,10.18c.86,4.19-1.85,8.28-6.04,9.14-4.19.86-8.28-1.85-9.14-6.04l-2.08-10.18-10.18,2.08c-10.06,1.79-13.06-12.88-3.1-15.18Z"/><path class="cls-13" d="M872.17,757.53c-5.06,7.66-6.46,16.67-4.66,24.99l25.82-39.1c-8.36,1.61-16.1,6.44-21.16,14.1Z"/><path class="cls-9" d="M918.83,779.54c9.96-2.3,6.95-16.97-3.1-15.17,0,0-10.18,2.08-10.18,2.08l3.1,15.18,10.18-2.08Z"/><path class="cls-9" d="M874.15,780.77c.86,4.19,4.95,6.89,9.14,6.04l10.18-2.08-3.1-15.17-10.18,2.08c-4.19.86-6.89,4.95-6.04,9.14Z"/><path class="cls-9" d="M903.46,756.26c-2.3-9.96-16.97-6.95-15.17,3.1,0,0,2.08,10.18,2.08,10.18l15.17-3.1-2.08-10.18Z"/><path class="cls-9" d="M895.55,794.91c2.3,9.96,16.97,6.95,15.17-3.1,0,0-2.08-10.18-2.08-10.18l-15.17,3.1,2.08,10.18Z"/><rect class="cls-9" x="891.76" y="767.84" width="15.49" height="15.49" transform="translate(-137.15 195.94) rotate(-11.56)"/><path class="cls-7" d="M789.98,947.61c-3.79-2.51-11.41-7.53-15.2-10.04-15.49-10.23-22.04-29.09-17.54-46.15-1.2-1.35-2.32-2.76-3.35-4.22-2.03.57-4.07,1.1-6.13,1.58-6.28,20.11,1.13,42.88,19.54,55.04l19.86,13.12c20.58,13.59,47.96,9.33,63.62-8.95-3.87-.31-7.72-1.1-11.48-2.36-13.93,10.83-33.84,12.21-49.33,1.98Z"/><path class="cls-7" d="M750.57,881.8c-1.13,2.28-2.06,4.61-2.8,6.98,2.05-.48,4.09-1.01,6.13-1.58-1.23-1.74-2.34-3.54-3.33-5.41Z"/><path class="cls-7" d="M759.75,895.8c.15-.44.31-.88.49-1.31-1.05-.98-2.05-2-2.99-3.06-4.49,17.06,2.05,35.92,17.54,46.15l7.59,5.02c-18.54-12.24-27.66-31.98-22.63-46.79Z"/><path class="cls-7" d="M811.15,952.33c-9.27-.35-19.42-3.57-28.77-9.74l7.6,5.02c15.49,10.23,35.4,8.85,49.33-1.98-1.35-.45-2.68-.97-3.99-1.55-5.81,5.83-14.5,8.61-24.18,8.26Z"/><path class="cls-10" d="M766.67,899.58c-2.33-1.54-4.46-3.25-6.43-5.1-.17.43-.34.87-.49,1.31,22.36,16.13,39.82,35.84,51.4,56.54,9.68.36,18.37-2.42,24.18-8.26-1.04.92-65.61-42.75-68.65-44.5Z"/><path class="cls-6" d="M811.15,952.33c-11.58-20.7-29.04-40.4-51.4-56.54-8.67,25.38,23.47,56.31,51.4,56.54Z"/><path class="cls-7" d="M896.25,900.25c-5.12,7.74-13.64,11.87-22.28,11.74-1.16,2.8-2.59,5.52-4.31,8.14-2.59,3.7-16.08,24.98-18.87,27.87,17.11,1.39,34.5-6.32,44.58-21.58l15.24-23.07c8.03-12.16,9.82-26.7,6.18-39.8-5.42,5.38-11.25,10.2-17.37,14.49,2.25,7.24,1.35,15.39-3.15,22.21Z"/><path class="cls-7" d="M750.29,881.24c.09.19.18.37.28.56.05-.1.1-.2.14-.29-.14-.09-.28-.17-.42-.26Z"/><path class="cls-7" d="M896.85,836.09l-45.06-29.76c-3.02,4.49-13.19,20.23-16.26,24.29,2.68,3.58,4.36,7.74,4.97,12.07,6.74,4.69,19.93,12.15,24.99,18.52,13.04-5.36,30.24,3.05,33.91,16.83,6.13-4.3,11.95-9.12,17.37-14.49-3.03-10.89-9.82-20.78-19.93-27.46Z"/><path class="cls-7" d="M780.31,796.64c-1.77,7.78-7.5,14.57-15.45,17.6l-11.94,18.08c-9.96,15.08-10.33,33.81-2.63,48.91.14.09.28.18.42.26,1.38-3.28,15.92-24.53,18.08-28.01,5.54-8.39,13.29-14.5,21.99-18.07,7.73-17.94,33.4-20.63,44.75-4.82,3-3.96,13.31-19.9,16.26-24.29l-16.38-10.82c-17.22-11.37-39.21-10.25-55.1,1.14Z"/><path class="cls-7" d="M764.86,814.25c7.94-3.03,13.68-9.82,15.45-17.6-6.28,4.24-11.38,11.01-15.45,17.6Z"/><path class="cls-7" d="M869.67,920.12c1.73-2.61,3.15-5.34,4.31-8.14-3.23-.05-6.47-.68-9.56-1.96-1.89,5.65-12.61,20.35-15.84,25.6-2.59,3.92-5.74,7.26-9.26,10,3.75,1.26,7.61,2.05,11.48,2.36,2.73-2.8,16.34-24.26,18.87-27.87Z"/><path class="cls-7" d="M758.94,886.33c-.23-.13-.46-.26-.69-.39-1.44.45-2.89.85-4.35,1.26,1.03,1.46,2.15,2.87,3.35,4.22.45-1.72,1.01-3.42,1.69-5.09Z"/><path class="cls-7" d="M750.71,881.5c-.05.1-.1.2-.14.29.98,1.87,2.1,3.67,3.33,5.41,1.45-.41,2.91-.81,4.35-1.26-2.54-1.39-5.05-2.87-7.53-4.44Z"/><path class="cls-7" d="M758.24,885.94c.23.13.46.26.69.39.1-.24.21-.48.31-.72-.34.11-.67.23-1,.33Z"/><path class="cls-7" d="M848.44,859.11c3.18,2.1,5.98,4.57,8.38,7.31,2.56-2.32,5.51-4.08,8.67-5.22-5.01-6.33-18.31-13.87-24.99-18.52.5,3.54.29,7.19-.7,10.72l8.64,5.7Z"/><path class="cls-7" d="M759.24,885.61c1.78-4.88,12.54-19.92,15.4-24.56,3.66-5.54,8.43-9.94,13.83-13.1-.27-4.22.48-8.51,2.32-12.53-8.7,3.57-16.45,9.67-21.99,18.07-2.24,3.59-16.62,24.59-18.08,28.01,2.48,1.57,4.99,3.05,7.53,4.44.34-.1.67-.23,1-.33Z"/><path class="cls-7" d="M762.43,890.27c.36-.54.74-1.06,1.14-1.57-1.56-.76-3.1-1.55-4.64-2.38-.68,1.67-1.24,3.38-1.69,5.09.94,1.06,1.95,2.08,2.99,3.06.59-1.46,1.31-2.87,2.2-4.21Z"/><path class="cls-7" d="M851.82,899.05c-16.75,3.76-34.19,4.32-51.36,1.48,12.26,8.09,29.66,19.59,41.87,27.66-.35,5.95-2.76,11.7-7.01,15.89,1.32.58,2.65,1.1,3.99,1.55,3.53-2.74,6.67-6.08,9.26-10,3.28-5.34,13.89-19.86,15.84-25.6-5.23-2.08-9.9-6.24-12.6-10.98Z"/><path class="cls-7" d="M800.15,868.17c-.69-.46-1.34-.94-1.97-1.45-12.09,8.19-25.22,14.52-38.93,18.9-.1.24-.21.48-.31.72,1.54.83,3.08,1.61,4.64,2.38,2.28-2.91,5.18-5.21,8.53-6.91.97.64,26.44,17.47,28.36,18.73,17.16,2.84,34.61,2.28,51.36-1.48-6.15-10.03-4.3-24.55,5-32.63-3.94-4.89-11.76-9.49-17.02-13.01-4.44,16.79-25.27,24.63-39.65,14.76Z"/><path class="cls-7" d="M798.17,866.71c-5.9-4.73-9.25-11.61-9.71-18.76-5.39,3.16-10.16,7.55-13.82,13.1-2.91,4.73-13.56,19.57-15.4,24.55,13.71-4.38,26.84-10.7,38.93-18.9Z"/><path class="cls-7" d="M804.33,917.32l-29.33-19.37c-1.95-1.29-3.04-3.36-3.19-5.52-2.77-1.13-5.51-2.39-8.23-3.72-1.39,1.74-2.52,3.73-3.34,5.78,1.97,1.85,4.11,3.56,6.43,5.1,3.05,1.74,67.65,45.45,68.65,44.5,4.25-4.19,6.66-9.94,7.01-15.89l-3.12-2.06-2.56,3.87c-2.2,3.34-6.7,4.26-10.04,2.05l-3.54-2.34c-3.34-2.2-4.26-6.7-2.05-10.04l2.56-3.87-5.7-3.77-1.92,2.91c-2.56,3.87-7.77,4.94-11.64,2.38Z"/><path class="cls-7" d="M772.95,887.96l2.57-3.89-3.43-2.26c-3.35,1.69-6.24,4-8.53,6.91,2.72,1.33,5.46,2.59,8.23,3.72-.11-1.53.24-3.1,1.15-4.47Z"/><path class="cls-7" d="M771.81,892.43c.15,2.16,1.24,4.24,3.19,5.52l29.33,19.37c3.87,2.56,9.08,1.49,11.64-2.38l1.92-2.91-17.43-11.51c-9.71-1.61-19.32-4.28-28.66-8.1Z"/><path class="cls-7" d="M772.95,887.96c-.91,1.38-1.26,2.95-1.15,4.47,9.34,3.82,18.95,6.5,28.66,8.1l-24.93-16.47-2.57,3.89Z"/><path class="cls-7" d="M823.09,929.71l3.54,2.34c3.34,2.2,7.83,1.29,10.04-2.05l2.56-3.87-15.63-10.32-2.56,3.87c-2.2,3.34-1.29,7.83,2.05,10.04Z"/><path class="cls-9" d="M836.05,839.74l4.45,2.94c-.61-4.34-2.29-8.5-4.97-12.07-1.53,2.1-3.1,4.14-4.72,6.14,1.78.88,3.54,1.87,5.24,2.99Z"/><path class="cls-9" d="M792.72,831.87c-.76,1.15-1.38,2.35-1.94,3.56,12.63-5.18,27.25-5,40.03,1.32,1.62-2,3.19-4.04,4.72-6.14-10.33-14.39-33.3-13.78-42.81,1.25Z"/><path class="cls-9" d="M830.81,836.75c-2.17,2.68-4.44,5.26-6.76,7.76,5.23,1.63,11.13,5.84,15.75,8.9.99-3.53,1.2-7.18.7-10.72-2.85-1.88-6.64-4.51-9.69-5.93Z"/><path class="cls-9" d="M788.47,847.96c10.64-6.23,23.72-7.63,35.58-3.45,2.32-2.5,4.59-5.07,6.76-7.76-12.78-6.32-27.4-6.5-40.03-1.32-1.84,4.01-2.59,8.31-2.32,12.53Z"/><path class="cls-9" d="M800.15,868.17c14.38,9.87,35.21,2.03,39.65-14.76-4.64-3.07-10.51-7.26-15.75-8.9-7.87,8.47-16.56,15.89-25.88,22.2.63.51,1.28,1,1.97,1.45Z"/><path class="cls-9" d="M788.47,847.96c.46,7.15,3.81,14.02,9.71,18.76,9.31-6.31,18-13.73,25.88-22.2-11.86-4.18-24.94-2.78-35.58,3.45Z"/><path class="cls-9" d="M877.56,890.46c.45,7.23-.71,14.59-3.58,21.52,17.32.7,30.99-17.47,25.43-33.95-6.92,4.85-14.24,9-21.85,12.43Z"/><path class="cls-9" d="M877.56,890.46c7.61-3.43,14.93-7.58,21.85-12.43-3.68-13.78-20.87-22.19-33.91-16.83,7.25,8.22,11.41,18.59,12.07,29.26Z"/><path class="cls-9" d="M877.56,890.46c-3.35,1.51-6.74,2.9-10.19,4.12,0,5.21-.97,10.45-2.95,15.44,3.09,1.28,6.33,1.91,9.56,1.96,2.87-6.93,4.03-14.29,3.58-21.52Z"/><path class="cls-9" d="M856.82,866.42c6.91,7.85,10.57,17.95,10.55,28.17,3.45-1.22,6.84-2.61,10.19-4.12-.66-10.67-4.81-21.04-12.07-29.26-3.16,1.14-6.11,2.89-8.67,5.22Z"/><path class="cls-9" d="M867.37,894.59c-5.09,1.81-10.29,3.28-15.55,4.46,2.7,4.74,7.38,8.89,12.6,10.98,1.98-4.99,2.94-10.23,2.95-15.44Z"/><path class="cls-9" d="M851.82,899.05c5.26-1.18,10.46-2.66,15.55-4.46.02-10.22-3.64-20.32-10.55-28.17-9.3,8.08-11.15,22.6-5,32.63Z"/><path class="cls-9" d="M983.38,714.82h0c-6.94-33.95-30.51-60.24-60.47-72.16-.42.36-.84.71-1.26,1.05l26.14,17.26-17.91,27.12c6.3,8.45,11.51,17.54,15.61,27.07,12.19,2.27,25,2.29,37.89-.35h0Z"/><path class="cls-9" d="M893.99,654.99c14.21,8.83,26.37,20.38,35.88,33.11l17.91-27.12-26.14-17.26c-8.02,6.42-17.66,10.27-27.65,11.28Z"/><path class="cls-9" d="M867.11,637.58c-.18.04-.36.06-.54.1h0s.01.06.02.09c.06.05.13.09.19.13.11-.11.22-.21.33-.31Z"/><path class="cls-9" d="M929.87,688.1l-11.69,17.7c8.53,4.41,17.72,7.58,27.3,9.37-4.1-9.52-9.31-18.62-15.61-27.07Z"/><path class="cls-9" d="M893.99,654.99c-4.08.41-8.21.36-12.32-.19,4.63,8.35,6.91,17.82,6.6,27.33,8.37,9.78,18.55,17.81,29.91,23.67l11.69-17.7c-9.51-12.73-21.67-24.28-35.88-33.11Z"/><path class="cls-9" d="M866.65,638.02c-.02-.09-.04-.17-.06-.26-.64-.47-1.29-.92-1.96-1.36-.85,1.28-1.62,2.59-2.34,3.92.57.18,1.13.35,1.7.54.86-.98,1.74-1.93,2.66-2.83Z"/><path class="cls-9" d="M879.58,709.45h0c5.58-8.44,8.4-17.9,8.7-27.32-7.47-8.73-13.5-18.84-17.62-30.05-3.79-1.39-7.49-3.22-11.01-5.54,1.33-2.02,2.79-3.91,4.34-5.68-.56-.18-1.13-.36-1.7-.54-12.94,23.79-5.74,53.93,17.28,69.14Z"/><path class="cls-9" d="M866.78,637.89c-.06-.05-.13-.09-.19-.13.02.09.04.17.06.26.04-.04.09-.08.13-.12Z"/><path class="cls-9" d="M870.66,652.07c4.11,11.21,10.14,21.32,17.62,30.05.3-9.51-1.98-18.97-6.6-27.33-3.72-.5-7.41-1.41-11.01-2.73Z"/><path class="cls-9" d="M916.65,640.41c2.11.68,4.2,1.43,6.26,2.25,3.68-3.14,7-6.83,9.8-11.07h0c-12.47-8.24-27.16-10.47-40.67-7.42.17.11.34.21.51.32l24.11,15.92Z"/><path class="cls-9" d="M867.11,637.58c17.09-3.4,34.03-2.16,49.54,2.83l-24.11-15.92c-.17-.11-.34-.21-.51-.32-9.21,2.08-17.88,6.62-24.92,13.41Z"/><path class="cls-9" d="M921.65,643.71c.43-.34.85-.69,1.26-1.05-2.06-.82-4.14-1.57-6.26-2.25l5,3.3Z"/><path class="cls-9" d="M867.11,637.58c-.11.11-.22.21-.33.31,2.82,2.07,5.38,4.38,7.67,6.87,6.68,2.82,13.22,6.23,19.54,10.23,9.99-1.01,19.63-4.86,27.65-11.28l-5-3.3c-15.5-4.99-32.45-6.23-49.54-2.83Z"/><path class="cls-9" d="M893.99,654.99c-6.33-4-12.86-7.4-19.54-10.23,2.83,3.08,5.24,6.46,7.22,10.04,4.11.55,8.24.61,12.32.19Z"/><path class="cls-9" d="M866.65,638.02c-.92.9-1.8,1.85-2.66,2.83,1.2.39,2.4.8,3.59,1.23-.34-1.34-.65-2.69-.94-4.06Z"/><path class="cls-9" d="M864,640.85c-1.55,1.77-3.01,3.66-4.34,5.68,3.52,2.32,7.21,4.15,11.01,5.54-1.19-3.24-2.21-6.58-3.07-9.99-1.19-.43-2.39-.83-3.59-1.23Z"/><path class="cls-9" d="M867.59,642.08c2.3.83,4.59,1.73,6.86,2.69-2.29-2.49-4.85-4.8-7.67-6.87-.04.04-.09.08-.13.12.28,1.37.6,2.72.94,4.06Z"/><path class="cls-9" d="M870.66,652.07c3.6,1.32,7.29,2.23,11.01,2.73-1.98-3.58-4.39-6.95-7.22-10.04-2.27-.96-4.56-1.86-6.86-2.69.86,3.42,1.88,6.75,3.07,9.99Z"/><path class="cls-7" d="M234.2,999.21c-25.01,11.84-15.03,48.73,12.18,46.78,1.72,2.17,71.37-31.23,75.02-32.36l-4.42-51.81-82.77,37.39Z"/><polygon class="cls-7" points="562.95 850.7 380.94 932.92 385.36 984.73 567.38 902.51 562.95 850.7"/><polygon class="cls-2" points="316.97 961.82 321.4 1013.63 385.36 984.73 380.94 932.92 316.97 961.82"/></svg>