<?xml version="1.0" encoding="UTF-8"?><svg id="Layer_1" xmlns="http://www.w3.org/2000/svg" xmlns:xlink="http://www.w3.org/1999/xlink" viewBox="0 0 1080 1080"><defs><style>.cls-1{fill:none;}.cls-2{fill:#f1bf99;}.cls-3{fill:#21818b;}.cls-4{fill:#e5b692;}.cls-5{fill:#0e1f2d;}.cls-6{fill:#238892;}.cls-7{fill:#da1c4b;}.cls-8{fill:#670022;}.cls-9{clip-path:url(#clippath-1);}.cls-10{fill:#0d2436;}.cls-11{fill:#e9927c;}.cls-12{fill:#e14863;}.cls-13{fill:#01182a;}.cls-14{fill:#e5f1ea;}.cls-15{fill:#0d1923;}.cls-16{fill:#f7f8eb;}.cls-17{fill:#cd415a;}.cls-18{fill:#1b3c4a;}.cls-19{clip-path:url(#clippath);}</style><clipPath id="clippath"><rect class="cls-1" x="442.64" y="637.4" width="188.31" height="113.44"/></clipPath><clipPath id="clippath-1"><circle id="SVGID" class="cls-1" cx="538.17" cy="658.99" r="77.62"/></clipPath></defs><path class="cls-4" d="M700.65,481.85c0,33.47,27.13,60.59,60.61,60.59s60.59-27.13,60.59-60.59-27.13-60.6-60.59-60.6-60.61,27.13-60.61,60.6Z"/><path class="cls-11" d="M732.29,481.85c0,15.98,12.97,28.95,28.97,28.95s28.96-12.97,28.96-28.95-12.97-28.97-28.96-28.97-28.97,12.97-28.97,28.97Z"/><path class="cls-5" d="M692.62,391.96c0,31.31,25.39,56.69,56.69,56.69s56.69-25.38,56.69-56.69-25.38-56.69-56.69-56.69-56.69,25.39-56.69,56.69Z"/><path class="cls-5" d="M387.38,391.96c0,31.31-25.39,56.69-56.69,56.69s-56.69-25.38-56.69-56.69,25.38-56.69,56.69-56.69,56.69,25.39,56.69,56.69Z"/><path class="cls-4" d="M379.35,481.85c0,33.47-27.13,60.59-60.61,60.59s-60.59-27.13-60.59-60.59,27.13-60.6,60.59-60.6,60.61,27.13,60.61,60.6Z"/><path class="cls-11" d="M347.71,481.85c0,15.98-12.97,28.95-28.97,28.95s-28.96-12.97-28.96-28.95,12.97-28.97,28.96-28.97,28.97,12.97,28.97,28.97Z"/><rect class="cls-4" x="367.49" y="643.89" width="332.51" height="406.89"/><rect class="cls-2" x="397.71" y="643.89" width="302.29" height="406.89"/><rect class="cls-3" x="330.48" y="968.48" width="416.25" height="111.52"/><rect class="cls-6" x="387.38" y="968.48" width="359.34" height="111.52"/><path class="cls-5" d="M355.53,366.83c16.25,23.06,10.72,55.04-12.34,71.3-23.06,16.25-55.04,10.71-71.3-12.35-4.96-7.03-3.27-16.75,3.76-21.7,7.03-4.95,16.75-3.27,21.7,3.76,6.36,9.02,18.87,11.19,27.89,4.83,9.02-6.36,11.19-18.87,4.83-27.89-4.96-7.03-3.27-16.75,3.76-21.7,7.03-4.96,16.75-3.27,21.7,3.76Z"/><path class="cls-18" d="M344.96,351.83c13.37,18.96,8.82,45.26-10.15,58.63-18.96,13.36-45.26,8.81-58.63-10.15-4.07-5.78-2.69-13.77,3.09-17.84,5.78-4.08,13.77-2.69,17.85,3.09,5.23,7.42,15.52,9.2,22.93,3.98s9.2-15.52,3.97-22.94c-4.07-5.78-2.69-13.77,3.1-17.85,5.78-4.07,13.77-2.69,17.84,3.09Z"/><path class="cls-10" d="M335.12,340.75c10.56,14.98,6.96,35.75-8.02,46.31-14.98,10.56-35.75,6.96-46.31-8.02-3.22-4.57-2.13-10.88,2.44-14.1,4.57-3.22,10.88-2.13,14.1,2.44,4.13,5.86,12.26,7.26,18.12,3.14,5.86-4.13,7.27-12.26,3.14-18.12-3.22-4.57-2.13-10.88,2.44-14.1,4.56-3.22,10.87-2.13,14.09,2.44Z"/><path class="cls-5" d="M730.8,360.64c-19.83,20.07-19.64,52.53.43,72.36,20.06,19.82,52.53,19.63,72.36-.44,6.05-6.12,5.99-15.98-.13-22.03-6.12-6.04-15.98-5.99-22.03.13-7.76,7.85-20.45,7.93-28.3.17-7.85-7.76-7.93-20.46-.17-28.31,6.05-6.12,5.99-15.98-.13-22.02-6.12-6.05-15.98-5.99-22.03.13Z"/><path class="cls-18" d="M743.7,347.59c-16.31,16.5-16.15,43.19.36,59.5,16.5,16.3,43.19,16.14,59.5-.36,4.97-5.03,4.92-13.14-.11-18.11-5.03-4.97-13.14-4.93-18.11.11-6.38,6.46-16.82,6.52-23.28.15-6.46-6.38-6.52-16.82-.14-23.28,4.97-5.03,4.92-13.14-.11-18.11-5.03-4.97-13.14-4.92-18.11.11Z"/><path class="cls-10" d="M755.23,338.28c-12.88,13.04-12.76,34.12.28,47,13.04,12.88,34.12,12.75,47-.28,3.93-3.98,3.89-10.38-.08-14.3-3.98-3.93-10.38-3.89-14.31.08-5.04,5.1-13.29,5.15-18.39.11-5.1-5.04-5.15-13.28-.11-18.39,3.93-3.98,3.89-10.38-.09-14.31-3.97-3.92-10.38-3.89-14.3.09Z"/><path class="cls-4" d="M770.89,517.55c0,170.16-83.91,308.09-187.4,308.09h-89.76c-103.49,0-187.4-137.93-187.4-308.09h0c0-170.14,83.91-308.1,187.4-308.1h89.76c103.49,0,187.4,137.96,187.4,308.1h0Z"/><path class="cls-2" d="M770.89,506.96c0,164.31-81.67,297.5-182.39,297.5h-87.36c-100.72,0-182.39-133.19-182.39-297.5h0c0-164.29,81.66-297.51,182.39-297.51h87.36c100.72,0,182.39,133.22,182.39,297.51h0Z"/><rect class="cls-4" x="443.33" y="505.92" width="102.48" height="146.89" rx="4.93" ry="4.93"/><path class="cls-15" d="M788.57,617.01c0,50.11-39.14,90.72-87.41,90.72s-87.41-40.62-87.41-90.72,39.13-90.71,87.41-90.71,87.41,40.61,87.41,90.71Z"/><ellipse class="cls-15" cx="597.11" cy="584.74" rx="46.91" ry="48.69"/><path class="cls-15" d="M779.26,711c0,39.97-31.22,72.37-69.73,72.37s-69.73-32.4-69.73-72.37,31.22-72.36,69.73-72.36,69.73,32.39,69.73,72.36Z"/><path class="cls-15" d="M770.89,779.92c0,39.97-31.22,72.37-69.73,72.37s-69.73-32.4-69.73-72.37,31.22-72.36,69.73-72.36,69.73,32.39,69.73,72.36Z"/><path class="cls-15" d="M423.23,615.25c0,39.97-31.22,72.37-69.73,72.37s-69.73-32.4-69.73-72.37,31.22-72.36,69.73-72.36,69.73,32.39,69.73,72.36Z"/><path class="cls-15" d="M482.02,605.89c0,39.97-31.22,72.37-69.73,72.37s-69.73-32.4-69.73-72.37,31.22-72.36,69.73-72.36,69.73,32.39,69.73,72.36Z"/><path class="cls-15" d="M600.48,605.79c0,39.97-31.22,72.37-69.73,72.37s-69.73-32.4-69.73-72.37,31.22-72.36,69.73-72.36,69.73,32.39,69.73,72.36Z"/><path class="cls-15" d="M502.81,701.67c0,60.24-47.06,109.08-105.1,109.08s-105.1-48.84-105.1-109.08,47.05-109.07,105.1-109.07,105.1,48.83,105.1,109.07Z"/><path class="cls-15" d="M599.11,780.27c0,84.25-65.81,152.56-146.98,152.56s-146.98-68.3-146.98-152.56,65.8-152.53,146.98-152.53,146.98,68.28,146.98,152.53Z"/><path class="cls-15" d="M766.21,780.27c0,84.25-65.81,152.56-146.98,152.56s-146.98-68.3-146.98-152.56,65.8-152.53,146.98-152.53,146.98,68.28,146.98,152.53Z"/><path class="cls-15" d="M626.68,868.51c0,48.11-37.58,87.12-83.93,87.12s-83.93-39.01-83.93-87.12,37.57-87.1,83.93-87.1,83.93,39,83.93,87.1Z"/><path class="cls-15" d="M328.44,554.21v137.05c0,89.77,95.83,162.56,214.05,162.56s214.05-72.78,214.05-162.56v-137.05h-428.09Z"/><path class="cls-10" d="M788.57,610.4c0,46.46-38.44,84.11-85.86,84.11s-85.86-37.66-85.86-84.11,38.44-84.1,85.86-84.1,85.86,37.65,85.86,84.1Z"/><ellipse class="cls-10" cx="600.52" cy="580.49" rx="46.08" ry="45.14"/><path class="cls-10" d="M779.58,696.32c0,37.05-30.66,67.1-68.49,67.1s-68.49-30.04-68.49-67.1,30.66-67.09,68.49-67.09,68.49,30.03,68.49,67.09Z"/><path class="cls-10" d="M771.2,760.83c0,37.05-30.66,67.1-68.49,67.1s-68.49-30.04-68.49-67.1,30.66-67.09,68.49-67.09,68.49,30.03,68.49,67.09Z"/><path class="cls-10" d="M429.72,608.77c0,37.05-30.66,67.1-68.49,67.1s-68.49-30.04-68.49-67.1,30.66-67.09,68.49-67.09,68.49,30.03,68.49,67.09Z"/><path class="cls-10" d="M487.47,600.09c0,37.05-30.67,67.1-68.49,67.1s-68.49-30.04-68.49-67.1,30.66-67.09,68.49-67.09,68.49,30.03,68.49,67.09Z"/><path class="cls-10" d="M603.83,599.99c0,37.05-30.66,67.1-68.49,67.1s-68.49-30.04-68.49-67.1,30.66-67.09,68.49-67.09,68.49,30.03,68.49,67.09Z"/><path class="cls-10" d="M507.89,688.89c0,55.85-46.22,101.13-103.23,101.13s-103.23-45.28-103.23-101.13,46.21-101.12,103.23-101.12,103.23,45.27,103.23,101.12Z"/><path class="cls-10" d="M602.48,761.76c0,78.11-64.64,141.44-144.37,141.44s-144.37-63.33-144.37-141.44,64.63-141.42,144.37-141.42,144.37,63.31,144.37,141.42Z"/><path class="cls-10" d="M766.6,761.76c0,78.11-64.64,141.44-144.37,141.44s-144.37-63.33-144.37-141.44,64.63-141.42,144.37-141.42,144.37,63.31,144.37,141.42Z"/><path class="cls-10" d="M629.56,843.56c0,44.61-36.91,80.77-82.44,80.77s-82.44-36.16-82.44-80.77,36.9-80.75,82.44-80.75,82.44,36.15,82.44,80.75Z"/><path class="cls-10" d="M336.62,552.18v127.06c0,83.23,94.12,150.71,210.24,150.71s210.24-67.48,210.24-150.71v-127.06h-420.48Z"/><path class="cls-4" d="M699.73,450.41c0,28.23-22.89,51.12-51.13,51.12s-51.12-22.89-51.12-51.12,22.89-51.12,51.12-51.12,51.13,22.88,51.13,51.12Z"/><path class="cls-4" d="M482.09,450.41c0,28.23-22.89,51.12-51.13,51.12s-51.12-22.89-51.12-51.12,22.89-51.12,51.12-51.12,51.13,22.88,51.13,51.12Z"/><g class="cls-19"><g class="cls-9"><circle class="cls-8" cx="538.17" cy="658.99" r="77.62"/><circle class="cls-7" cx="597.88" cy="749.94" r="77.62"/><rect class="cls-16" x="403.6" y="489.97" width="266.38" height="171.77"/></g></g><path class="cls-15" d="M443.33,684.9c52.46,0,94.99-42.53,94.99-94.99h-189.98c0,52.46,42.53,94.99,94.99,94.99Z"/><path class="cls-15" d="M623.04,684.9c52.46,0,94.99-42.53,94.99-94.99h-189.98c0,52.46,42.53,94.99,94.99,94.99Z"/><path class="cls-10" d="M446.94,655.4c52.46,0,94.99-29.32,94.99-65.49h-189.98c0,36.17,42.53,65.49,94.99,65.49Z"/><path class="cls-10" d="M626.65,655.4c52.46,0,94.99-29.32,94.99-65.49h-189.98c0,36.17,42.53,65.49,94.99,65.49Z"/><path class="cls-16" d="M476.87,444.72c0,25.09-20.34,45.43-45.44,45.43s-45.43-20.34-45.43-45.43,20.34-45.43,45.43-45.43,45.44,20.34,45.44,45.43Z"/><path class="cls-13" d="M457.11,444.72c0,14.18-11.5,25.67-25.68,25.67s-25.67-11.49-25.67-25.67,11.49-25.67,25.67-25.67,25.68,11.49,25.68,25.67Z"/><path class="cls-14" d="M428.09,430.3c0,5.84-4.74,10.57-10.58,10.57s-10.57-4.73-10.57-10.57,4.73-10.57,10.57-10.57,10.58,4.73,10.58,10.57Z"/><path class="cls-14" d="M453.56,460.37c0,3.06-2.48,5.54-5.54,5.54s-5.54-2.48-5.54-5.54,2.48-5.54,5.54-5.54,5.54,2.48,5.54,5.54Z"/><path class="cls-16" d="M476.87,444.72c0,25.09-20.34,45.43-45.44,45.43s-45.43-20.34-45.43-45.43,20.34-45.43,45.43-45.43,45.44,20.34,45.44,45.43Z"/><path class="cls-13" d="M457.11,444.72c0,14.18-11.5,25.67-25.68,25.67s-25.67-11.49-25.67-25.67,11.49-25.67,25.67-25.67,25.68,11.49,25.68,25.67Z"/><path class="cls-14" d="M428.09,430.3c0,5.84-4.74,10.57-10.58,10.57s-10.57-4.73-10.57-10.57,4.73-10.57,10.57-10.57,10.58,4.73,10.58,10.57Z"/><path class="cls-14" d="M453.56,460.37c0,3.06-2.48,5.54-5.54,5.54s-5.54-2.48-5.54-5.54,2.48-5.54,5.54-5.54,5.54,2.48,5.54,5.54Z"/><rect class="cls-10" x="376.86" y="366.69" width="108.21" height="36.23" rx="1.74" ry="1.74" transform="translate(-25.79 31) rotate(-4)"/><path class="cls-16" d="M694.52,444.72c0,25.09-20.34,45.43-45.44,45.43s-45.43-20.34-45.43-45.43,20.34-45.43,45.43-45.43,45.44,20.34,45.44,45.43Z"/><path class="cls-13" d="M674.76,444.72c0,14.18-11.5,25.67-25.68,25.67s-25.67-11.49-25.67-25.67,11.49-25.67,25.67-25.67,25.68,11.49,25.68,25.67Z"/><path class="cls-14" d="M645.74,430.3c0,5.84-4.74,10.57-10.58,10.57s-10.57-4.73-10.57-10.57,4.73-10.57,10.57-10.57,10.58,4.73,10.58,10.57Z"/><path class="cls-14" d="M671.21,460.37c0,3.06-2.48,5.54-5.54,5.54s-5.54-2.48-5.54-5.54,2.48-5.54,5.54-5.54,5.54,2.48,5.54,5.54Z"/><rect class="cls-10" x="594.5" y="376.45" width="108.21" height="36.23" rx="1.74" ry="1.74" transform="translate(21.54 -33.4) rotate(3)"/><rect class="cls-17" x="485.9" y="452.86" width="100.34" height="146.89" rx="4.82" ry="4.82" transform="translate(1062.37 -9.76) rotate(90)"/><rect class="cls-12" x="482.12" y="437.35" width="107.9" height="146.89" rx="5.19" ry="5.19"/><circle class="cls-5" cx="349.5" cy="239.31" r="66.27" transform="translate(57.09 545.76) rotate(-80.74)"/><path class="cls-5" d="M360.45,319.93c0,17.72-14.37,32.1-32.1,32.1s-32.1-14.37-32.1-32.1,14.37-32.1,32.1-32.1,32.1,14.37,32.1,32.1Z"/><path class="cls-5" d="M705.06,322.27c0,16.43,13.32,29.76,29.76,29.76s29.76-13.33,29.76-29.76-13.33-29.76-29.76-29.76-29.76,13.33-29.76,29.76Z"/><path class="cls-5" d="M765.87,279.03c0,33.62-27.25,60.87-60.86,60.87s-60.87-27.25-60.87-60.87,27.25-60.87,60.87-60.87,60.86,27.26,60.86,60.87Z"/><path class="cls-5" d="M702.35,218.17c0,46.46-37.66,84.12-84.11,84.12s-84.11-37.66-84.11-84.12,37.66-84.11,84.11-84.11,84.11,37.66,84.11,84.11Z"/><path class="cls-5" d="M721.99,315.8c0,17.12,13.88,31,31,31s31-13.88,31-31-13.88-31-31-31-31,13.88-31,31Z"/><path class="cls-5" d="M785.33,270.77c0,35.01-28.38,63.4-63.39,63.4s-63.4-28.38-63.4-63.4,28.39-63.4,63.4-63.4,63.39,28.39,63.39,63.4Z"/><path class="cls-5" d="M597.11,173.04c0,68.15-54.34,123.4-121.36,123.4s-121.36-55.25-121.36-123.4,54.33-123.4,121.36-123.4,121.36,55.25,121.36,123.4Z"/><path class="cls-5" d="M719.17,207.37c0,48.39-39.22,87.62-87.61,87.62s-87.61-39.22-87.61-87.62,39.22-87.6,87.61-87.6,87.61,39.22,87.61,87.6Z"/><path class="cls-10" d="M498.32,287.84c-79.35,0-143.92-64.55-143.92-143.92S418.97,0,498.32,0c24.2,0,43.81,19.61,43.81,43.81s-19.61,43.81-43.81,43.81c-31.05,0-56.3,25.25-56.3,56.29s25.26,56.31,56.3,56.31c24.2,0,43.81,19.62,43.81,43.8s-19.61,43.81-43.81,43.81Z"/><path class="cls-18" d="M549.93,287.84c-65.26,0-118.35-53.08-118.35-118.35s53.09-118.33,118.35-118.33c19.89,0,36.02,16.12,36.02,36.02s-16.12,36.03-36.02,36.03c-25.54,0-46.31,20.77-46.31,46.29s20.77,46.3,46.31,46.3c19.89,0,36.02,16.13,36.02,36.04s-16.12,36.01-36.02,36.01Z"/><path class="cls-10" d="M591.36,283.17c-51.55,0-93.48-41.92-93.48-93.48s41.93-93.48,93.48-93.48c15.72,0,28.45,12.74,28.45,28.45s-12.73,28.46-28.45,28.46c-20.17,0-36.57,16.42-36.57,36.57s16.4,36.57,36.57,36.57c15.72,0,28.45,12.73,28.45,28.46s-12.73,28.45-28.45,28.45Z"/></svg>