<svg width="24" height="24" viewBox="0 0 24 24" fill="none" xmlns="http://www.w3.org/2000/svg">
  <path fill-rule="evenodd" clip-rule="evenodd" d="M12 1.5C12.4142 1.5 12.75 1.83579 12.75 2.25V14.6893L15.2197 12.2197C15.5126 11.9268 15.9874 11.9268 16.2803 12.2197C16.5732 12.5126 16.5732 12.9874 16.2803 13.2803L12.5303 17.0303C12.2374 17.3232 11.7626 17.3232 11.4697 17.0303L7.71967 13.2803C7.42678 12.9874 7.42678 12.5126 7.71967 12.2197C8.01256 11.9268 8.48744 11.9268 8.78033 12.2197L11.25 14.6893V2.25C11.25 1.83579 11.5858 1.5 12 1.5ZM6.375 9C6.07663 9 5.79048 9.11853 5.5795 9.3295C5.36853 9.54048 5.25 9.82663 5.25 10.125V19.875C5.25 20.1734 5.36853 20.4595 5.5795 20.6705C5.79048 20.8815 6.07663 21 6.375 21H17.625C17.9234 21 18.2095 20.8815 18.4205 20.6705C18.6315 20.4595 18.75 20.1734 18.75 19.875V10.125C18.75 9.82663 18.6315 9.54048 18.4205 9.3295C18.2095 9.11853 17.9234 9 17.625 9H15.75C15.3358 9 15 8.66421 15 8.25C15 7.83579 15.3358 7.5 15.75 7.5H17.625C18.3212 7.5 18.9889 7.77656 19.4812 8.26884C19.9734 8.76113 20.25 9.42881 20.25 10.125V19.875C20.25 20.5712 19.9734 21.2389 19.4812 21.7312C18.9889 22.2234 18.3212 22.5 17.625 22.5H6.375C5.67881 22.5 5.01113 22.2234 4.51884 21.7312C4.02656 21.2389 3.75 20.5712 3.75 19.875V10.125C3.75 9.42881 4.02656 8.76113 4.51884 8.26884C5.01113 7.77656 5.67881 7.5 6.375 7.5H8.25C8.66421 7.5 9 7.83579 9 8.25C9 8.66421 8.66421 9 8.25 9H6.375Z"/>
</svg>
